<svg viewBox="0 0 606.15 510.86" xmlns="http://www.w3.org/2000/svg" xmlns:xlink="http://www.w3.org/1999/xlink"><clipPath id="a" transform="translate(70.33 .84)"><path d="m0 0h500v500h-500z"/></clipPath><g clip-path="url(#a)"><path d="m-69.98-.43h605.46v500.86h-605.46z" fill="#27aae1" transform="matrix(.99999903 .00139626 -.00139626 .99999903 70.67 .52)"/><path d="m365.62 475.05 116.92-67.52 61.91 35.82-116.93 67.51z" fill="#6ec7ef" opacity=".2"/><path d="m380.95 414.25 115.14-66.49 60.96 35.27-115.13 66.48z" fill="#6ec7ef" opacity=".2"/><g fill="#2296d3"><path d="m269.97 128.67 4.25 1.63 1.54-.32-.95-2.27-4.97-2.87h-4.85l-3.47.93 2.33 2.04z"/><path d="m267.99 138.85 4.63.64 6.27-1.53 1.59-1.25-2.92-.73-1.81-1.96-.07-.08-1.47-.85-4.24-2.45-.82-.47-4.84-.38-.46.13-2.34.7-1.72.51 5.42 4.34z"/><path d="m218.73 142.22 1.65-1-6.38-1.71c-.23-.07-2.89.15-3 .16l1.07 2.39z" transform="translate(70.33 .84)"/><path d="m303.94 150.23.31.2.54.29.43.22 2.75 1.46 2.66 1.4.03.02.38-1.06-.41-.27-2.65-1.77-2.75-1.85-.44-.29.44-.76 2.76.44-.57-1.91-3.7-1.63-.93.54 1.16 1.18-1.17.32-.7.2-1.15 1.24 1.84 1.24z"/><path d="m316.47 153.71.49.25 1.53.77 1.88.49 3.57 1.64 3.04-.32 3.72 1.21 3.65 2.11 3.41-.58 6.07 2.45 3.94.79-1.34-2.56-5.42-3.8-5.22-1.15-.99.95-4.49-1.36-2.72-1.32-3.37-.81-3.84-.29-2.25-1.77-1.65.02.49 1.26-.49-.22-4.15-1.87-1.7.18 1.89 1.93z"/><path d="m289.86 148.36-.44.33-1.65 1.2 5.48 4.24-.18 5.72-.01.16-4.84.51-4.14-1.5-2.54-.58-.7 2.53 2.4 5.64 2.7-.73 6.01 1.12 5.5-1.85 4.67-1.5 3.3-1.92-2.41-6.28-.45-1.16-1.64-.68-5.15-2.15-.23-2.43-5.58-.66z"/><path d="m259.38 181.49-1.12-.04.06 1.15.12 1.94 3.64 1.28.95 2.33 3.97.32.25-3.36.01-.18.04-2.9-1.6-.29-.71-.03z"/><path d="m173.85 187.13.41 1.3.04.01.38.08 1.31.27 1.07-.62.03-1.44.06-2.07-.26-.35-.84-1.21-1.02-1.44-3.42-1.51-1.07.07 3.77 3.32.38 1.87-.38.79z"/><path d="m345.23 164.59-1.4-.34-5.9-1.44-.18-.07-3.41-1.48-1.33-.58-2.03 1.69-.29.09-1.84.54-1.88.55 3.66 4.4-3.68.83-1 .23-2.08 1.59.67.9-.68.65-1.96 1.9-9.47-.26-9.13 3.51-.3 5.68 3.76 2.17 8.58-2.42 12.36 2.8 9.04 2.3 6.03 3.35 3.22-.01.84-2.35 2.92.16 8.94 1.98 8.48-1.08 8.55-3.1 1.07-.38 2.88.41 1.22.18-.19-.88-1.02-.45-4.5-1.98-1.93-3.78 6.44 2.7-1.12-2.55-3.98-2.3-2.1-1.98-11.39-4.67-2.86-.5-4.31-3-6.17-2.13z"/><path d="m107.62 195.69h.13l.25.07.35.1.39.12h.13.12.13l.43.13h.09.16.07.16.07l.33.09h.08.08a.07.07 0 0 0 .07 0l.07-.09v-.09-.1-.09a1554261289465.51 1554261289465.51 0 0 0 .08-.22v-.07s0-.08 0-.11a.14.14 0 0 1 0-.06.29.29 0 0 0 0-.09v-.06l.65-1.57-1.55-2.09-3.46-.93h-.1-1.06l-1.29.37-.42.17-1.75.72.67 1.14z" transform="translate(70.33 .84)"/><path d="m346.88 197.89-3.44-.87-.69-.17-.58-.15-.36-.09-1.73-.58-.37-.12.14-.5.24-.88-2.21-.51-.17.2-1.96 2.32.29 2.72 3.65 1.1.36.11 4.98 1.5 3.14-1.05z"/><path d="m334.43 216.97.04-2.01-3.22-1.07-3.72 1.13-.99.58 3.32 2.16z"/><path d="m343 212.88-4.34 1.88-.87 1.6.44 1.28-.45.26-1.14.66-2.18-.02h-.03l-.82-.01-1.65.9.56 1.14-.56.18-.65.21-1.46-.53-1.79-.65.33 1.4 1.46.73 2.1 1.07.39.19.17.09.25.12 5.12.35 2.03-.81.45-.18-.45-.95 1.75-1.73.27-2.33 2.18-1.27.18-.1-.18-1.69 1.37-1.5z"/><path d="m214.8 175.13 11.5.66 2.13.87 1.51.18 2.56-1.32 3.27-.12 3.54 2.05 4.05.2.15.04 1.53.4-.1.22-.19.4-1.32.44h-.07l-2.72-.08-1.33.42-.21.06-.1.96.3.09 1.68.49 2.37-.15 1.69-.1.63-.04 1.7-.99.63-1.61.16-.39 3.52-.76.1-1.28-3.12-1.8-1.25-.21-2.86-.48-1.02-.65 3.88-.43 5.6 1.48 6.38 3.69 5.61 1.93 4.46-.07 3.75-.73.18-.04.22-.04-.22-1.01-.17-.81.18-1.26 6.39-4.42-.14-1.07-2.28-.38-1.69-.29-.58.05-1.79.14-1.51-.42-.61-.17-1.47-1.16 2.09-1.37 3.3-.32 2.28-1.55-.98-3.53-4.26-2.29-2.09.19-2.09 1.18-4.37.43-3.55 1.58-3.88.81-4.03-.32-2.01-.78-2.09.16-1.1.52-1.38.66-.54.26-2.62.52-.37-.32-.43-.36.43-1.21 3.54-2.38 1.74-3.76.14-.31-.13-3.86 1.36-2.72 3.03-1.27 11.93 1.99 7.77.1 5.2 2.49 4.33-.63.07-.01-.07-1.88 1.39-.99.05-.04 2.95-2.1-.56-.96-2.38-.19-1.07-.09-4.1-.33-1.72-.32-2.89-.53-1.56-.3-3.07-1.93-1.52-.97-1.26-1.99-.19-.31-5.23-3.64-1.18-.82-3.61-4.25-.73-3.73-3.11-3.45-9.67-6.6-1.92-3.04-.03-.06.04-2.84-5.66-3.63-.21-.13.22-1.92-8.52-5.93-7.18-3.39-5.63-1.53-1.98.7-5.08-1.66-5.84-.7-.44.83 3.43 2.49-.49.61-2.94-.79-.76-.2-5.68-2.59-6.28.07-2.59.73-2.03.8.5 1.37-.51.44-1.08.93-8.16-1.66-1.55.51 2.27 1.25 4.69 1.75 3.82.4.51.05 3.72.38 6.08 3.07 5.13.92.17.55-.17.03-3.63.76 1.71.74 1.91.01h.17l2.82.02 1.55.77-.48 2.07.48.4 1.45 1.23.57 1.91-.57.41-1.62 1.19.77 1.4-.04.19-.39 1.98-.36.22-11.08 6.75-1.45 3.21-3.89 2.39-2.76.64-.29-.13-.81-.38.82-1.37-1.76-.45-2.37.93-5.18.32-3.51 1.47-5.29.83-6.92 2.74-6.2 4.31-2.24 4.18-3.23 3.67-5.6 2.36-2.75 3.13-3.45 2.26-.48 2.33 1.38.8 1.59-.1.43-2.04 2.97-1.66 1.37-1.69 7.9-4.53.95.92-.95.9-.48.44-3.4 1.98-.49 1.82-3.55 2.29-1.36.87-1.24.8-1.69 2.52-.04.53-.09 1.07-.08.89-.13.1-.13.11-.72.57-.55.43-1.27.29-1.96 4.53 3.06 4.82 5.26 4.18.7 6.7 2.37 1.89-2.38 1.87-.21.16-1.19.93.1 7.31 1.22 1.72 2.48-.38.82-.13 1.2 1.17.41.4-1.62 1.01-3.3 2.07-.84.53-1.21.76-4.02 1.05-3.96.45-8.46 4.66-4.74.32-2.08 1.21-.62 7.14-2.69 1.89-.76 2.81-2.08 1.91.67 11.52-.34.21-21.07 13.05-1.75 2.89-12.59 7.74-.64 4.21-3.94 3.49-2.35.34-4.09 4.94.92 5.79 3.09.76 4.16-3.19 4.11-2.38.65-2.17 8.07-1.45 1.09-.81.66-1.49 3.45.39 2.57-.9 3.82.94 2.58 1.4 2.79-.59 3.21-4.17.79-1.83 3.47 2.59 4.12.34 4.98-2.21 5.44.43 6.7-2.49 6.65-1 5.95.81 8.37.08 8.51-2.81 9.23-4.76 9.25-1.11 5.78-4.64-2.17-7.1-5.54-4.81-1.16-3.78-.16-.5-.55-1.8-2.07-1.71 2.64-1.53 2.33-4.42-3.78-3.79-.41-7.61-6.2-5.79-2.29-2.26-1.62-.42-.53.08-2.12.35-.21.04-1.76-.26-.3-1.02 2.27-.47 2.13-1.15-1.77-.76-2.28-.13-3.53-.43-3.16.04-1.47-.85-2.21-1.53-.13-.09-4.3-2.89 7.47-5.1.6-1.95.34-1.07-3.99-2.64 4.91-2.85 6.75-.68 1.25-.81-3.02-2.08-7.5-.52-2.26-.57-1.42-.36-1.49-3.83 10.25-5.79 8.82-.08 6.47 1.36 6.19 3.06 2.27-.21 3.39 1.28 1.55 2.93-1.57 1.86-.21.25-.81.42-4.06 2.11-.98 1.51.84.66 1.95-.28 4.13-2.01.7-.35.66-.32 6.68-1.74 10.69-.32 5.39-.83 3.51-2.04 3.42-.32.77.63-.78.46-.7.41.7.47.65.44z"/><path d="m527.61 316.31-1.55 5.34-1.95 1.95-.57.58v.33l.01 3.2 1.66-.07 1.49-3.68 2.08-1.46-.33-6.3z"/><path d="m523.54 332.87v-.01l-.41-.31-.59-2.67-1.36-.79-1.14.66-.24 1.55-2.76.75-1.72.87.67 1.53.81.26.58-.98 3.36 1.64 4.4.17.63-.96-1.38-1.06z"/><path d="m282.62 327.33-10.56 3.66-3.72 3.02-.73.85 1.84 1.06 4.01.71 6.93-1.52 6.67-2.42 4.19-.47 4.9-2.34 1.09-2-6.83-.89z"/><path d="m493.92 340.45-1.59-.91-.16.01-2.59.1 1.44 1.38-1.32.63.07.98.05.58 1.19-.12.19-.02.96-.09.04-.01.59-.34 1.35-.79-.1-.66z"/><path d="m446.47 335.63-.65-.7h-.15l-.68-.06-1.49-.15.09 1.78-.09.06-2 1.28-5.5.9-6.76-.18-1.66-.57-3 .72 1.43.58 2.79.64c.13.06 2.58 1.23 2.7 1.3a13 13 0 0 0 1.43 1.25l.12.06h.1 1.25.16.44.2.15.26.15.2.14.24.08.27.2.2.16.1.37.1.23l.8-.09h.13.1.21.24l3.95-2.29.09-.06.32-.18 1.23-1.12.53-.47.81-.74.58-.52.14-.13-.14-.15z" transform="translate(70.33 .84)"/><path d="m461.89 346.43-.91 1.42-.19 1.67 2.12-.46 2.11-2.31.68-.74-.68.07z"/><path d="m516.53 309.33-18.53-11.18-6.53-.22-11-8.47-22.62-13-4.63-.47-2.87-1.32-4.41-.43-2.44-5.24-4.2-2.34-3.82-.77c-.54-.31-10.83-6.34-11.07-6.56a8 8 0 0 0 -1.42-.24c-1.78-.22-4.61-.46-4.82-.47l-.3-1.62 5.13-2.13-6.34-4.76-6.66-1.45-11.86-4.38-2.56 1.49-4.7-.43-1 1.28-5.36.3-1.16 2.81-3.67.51h-.85l-2.26-.06-2.92-.08.64-.63.42-.42 1.87-1.85 4.3-5.31-4.49-2-3.45 1.66 1.78 2.72-1.79 1-1 .58-6.27-4.64-5.44-.6-12.73-4.8-.68-2.94-2.94-.26-3.66 1.79-1-.09-1.83-.16-4.79-.43-1.44-.13-2.16-3.59 3.6-.05 4.78 2.26 1.84-.55-.09-2-4.65-4.22-.84-4.81-4.34-2.25-4.63-.47-8.3-1.15-3.91-1.06-8.22.09-2.35.5-9.47.47-5.8 1.92-.5 1.74 3 1.75 3.09.68-.21 2.42-2.56 1.58.66 1.38h.06l2-.23h.12l2.14.64 4-1.27 4-.34 2-2.26 5.21-1.06 4.33-.55 2.12-1.07 2.87 1 .74.68-.74.55-1.38 1-1.5.2-2.12.3-.64.09-3.76 1.09-1 .31-.8 1.83.61.59.65.64 2.43.47 4.56 2.38.38.81-.38.14-1.24.46-3.33-2.13-.79-.51-1.63-.29-.51-.09-.75.16-.64.13.11.79-.11.06-2 1.07-.73-.77v-.89l-1.38-.09h-.64l-1.1-.06-2.35 1h-.52l-3.25.28-.71-.39-2.13-1.16-2.19-1.19-.68-.37-1.49-.81-1.38-.75-1.82-1-.89-1.32 2.24-.7.48-.15 1.39-1.19-1-.51-.83.12-2.14.32-1.99 1.29-2.31.53-3.34-1.09-5-.22-1.3-.06h-.45l-2-.08-4.71-.21-.41-.2-.25-.12-.56-.27-1-.5-2.09.15-.45-.2-.34-.16-2.27-1-1.8.4.78 1.3.19 2-.19.12-.79.49-2.34 1.45-5.59-.72-5.49-3-2.8-.76-7.58 4.4-1.19 2.19 1.82 1.22.89 1.86h2.94.31 1c.17.09 2.79 1.31 2.93 1.37h4.24l1.71-.61 7.27-.12 1.66 1 2.52-1 4.29 2.36 4.31.83 1.05 1-1.06.9-.81.69v2.46l.74.78 1 1-.38 1.18-.82 1.18-.53.22-1.67.67.67 1h1.2 1.52l1.47-1.5.88-.51.67.83.06.05.62.47.6-.74-.06-2v-.41l-.91-2.27-.26-.64.26-1.88 2.42-1.66 1.21-.06.66.51-.44.64-.22.13-1 .57.46 1.72.52.28.66.35.2.11 1.12 4-1.13.85-.76.57-1.12.84-.82 2.08-.05 1 1.44 1.21-.6.6-.85.21-1.46.37-.22.83.72.73 1-.1h.25l1.2-.75 1.77-1.11.32-1 1.38-.6h1.81l2.1-.19 2.37 1.57 3.75-.07 1.21-.95 3.24-1.76 6.5-.06 3.86 1.27-.38.74-1.59.41-1.21.7.28 1.06 2.89.64h.14l1.59-1.38 2.75-.63 3.43 2.1-1 .7-2.25.22-.2.06-2.39.8-.21 1.92.73.59 1.65 1.35v1.28l-2.14 1.24-.25-.13-6-3-1.66-2-4.59-2.06-1.92-.87-1.3-.23-1.2-.21-2.41-.42-1.34.23-2.38.4h-.19l-1.91 1.05-.4.22.4.58.39.57.15.23 3.11 3.51 6.13 2.33.72 1.88-.73.5-2.56 1.73-1.37.24-1.77.31-4.62.12-5.58-2.52-2-.54-6-3.73-1.51-3.48-2.81-1.18-3.52 1.34-1.54-.13-.45-1.72-1.34-1.73-.06-1.75-1.05-.82-.16-.12-3.34-2.61-.15-.12.15-1.06 3.36-1.56.87-2-8.29-4.3-.43-.23-4.24-2.2-.25-.13-2.69-.25h-.09-.2l-.83-.07-2.79-1.88-.37-.25-.9-.6-.45-.95-1.35-.09-3.55-.2-9.37.45-3.79 1.24-6 .35c-.38 0-14.32 2.42-15.06 2.54l-1.53 1.24-12.69 4.21-1.74 1.93-3.36 1.79.31 3.32-.32.22-3.19 2.25.56 8.38 2.43.89 4.33.13 3.46 1.92.31 1.95 6.32.68 4.57 2.64.76 4 4 2.72-4 2.56-.09.06-1.77 1.13-3.23.68-1.21 6.76-8.88 5.15-.72 3.32-8 2-6.66 4-.13 2.21-3.37 1.79-.94 1.91-5.64 4.13-1.08 2.94-2.79 1.61-.35 2.77-2.56 1.49.83 4 10.41 3.57 13.81.09 4.18-.64 3.16-1.49 5.21-.3 6.31-2 4.24-2.29 8.38.42 4.85.94 10.47-5.41.73-2 8.49-5.36 3-.7 3.37.74 1.92-1.06 15.53-.13 7.49-.44 4.95-2.17 3.41-.32 2.15-1.06-.69-1.71v-.11l-3.57-2.1-1.68-1h-.21l-2.47-.39h-.1l-1.14-.18-.28-1.81 1.43-.83.28-8 1.93-1.12 1.19-3.25 4.24-3 .09-.07-.08-2.77 2.26-1.82 1.89-5.78.88-1.21 1.6.54.78 1.72 1.05.48-1.05.87-.26.21-.43 2.62v.12l-.31 1.5-2.25 1.31-.26 2.9-1.7 1.31-.42 5-1.37 1.86-3.95 2.24v1.66l-1.52 1.45 1.51 1.13.36.27 5.67.61 4.32 1.91 7.82.45 1 .6 9.48.64 6.5-.83 2.12-2.32-.21-1.76-.27-2.38v-.24l-1-.64-.09-.06-.64-.42-3.67-.6-1-.16-.34-.36-.2-.21-.13-.14.13-.19.38-.59.58-.9.55-.87-1 .32-.47.15-.37.11-1.16-.55 1.53-1.59.48-3.16 2.58-1.37h1.55l.72 2.26.57 2.87 1 2.62 2.77 2.49.84 2.33 9.17 5.55c0 .13.84 2.59 1 2.87a4.13 4.13 0 0 0 1 .69c.65.37 1.33.73 1.37.75l-.17 2.15-2.13.78.23 1.47 2.05.39 1.2.22 1.27.92-1.27.44-3 1-.25.24-.24.21-2.2 2.08-1 2.13-.6 1.37-3.13 2-.92 2.52-.77 1.66-3.18 2.87 1.89 1.59 2.37.29 4.46-.67 6-2.46 5.83-1.34 5.67-.41 8-.55 3.95-1.53 2.22.14 2.63 1.34 2 .19.71 1.85.28 3.94-.29.25-.48.41-1.64 1.5-2.71 1.49-.25 1.42.89.81 2.06.47 1.11 1.06-.58 1.15-.54.48-1.8 1.6-.22 1.09-.35 1.77-7.65 4.44-1.43 1.94-.54 1.89-2.34 1.83-.65 1.91-.18 1.6 1.11.6 2.49-.77 2.93-2.38.19-5.07 4-3.19 5.13-1.79 1.77 1 .4 4.89-.41.24-.62.36-1.24.72 1.91.32.35.06 3.55.6 8.79-3.15 2.36-3.59.7-5.44 2.2-.86 5.07.22 2.44 1.4.3 1.45 2.71.3 10 .76 9.32-1.23 5.94-2 2.63-2 1-1.66 1.9-2 .48-5.32 1.5-1 .51-.33.41-.27 2.87.56 1.46-.43-.59-1.19-4.14-2.39-.5-.29.5-1.23 6.1-.3 2.28.55v.9l-2.28.58-.35.1.08.8h.27l2.28.18 1.18.09 2.51 1.45-1.78 1.16-.43 1.62 1 .76-.82 1.23-.22.33-1 1.5 1 1.41.42.59.61.19 2.26.71 2.63-3.07v-4.12l1.54-1.15 2.57-.56 2.71-1.49 3.06-.09 1.88 1.08 3.58-.41 3.9-1.57 4.67-2.71 3.4-2.55 2.46-3.93-.87-3.86v-.16l-2.76-2.65 3.07-3.32 5.5-1.48 8.24 2.12 6 2.68h5.29l4.31-1.46 5.6 1.79-.6 2.31-3.28 2.26-3.09 2.13-3.63 6.8 1.92 2.81 3.89-.81 4.24-4.08.78-4.13 5.72-2.13 5.23 1.75 7.15-.78.63-.07-.62-4.26 3.68.08 4.56 1.45 4.77-.89z" transform="translate(70.33 .84)"/><path d="m452.94 355.49-4.89 1.44.5 1.12-.51.39-1.14.88 1.14.78.5.35.08.05 1.16 1.44-.49 1.12.48.08 1.06.17 1.03-.6 1-.58-1-1.59 1.04-2.02 2.64-1.53 1.42-2.36-1.6-.54z"/><path d="m447.11 367.14.32-1.15-1.32-.76-2.67.68-1.12 1.58 1.81-.29z"/><path d="m394.73 350-1.48.87-.58 5.01-2.06 1.45-.55 3.4-2.14 1.62v6.15l1.94 1.12 2.56-.53 2.85-2.23.17-4.59 1.06-1.26.8-5.32-1.35-4.98z"/><path d="m437.82 371.58.3 1.06h.4l1.18.02.15-.05 1.72-.65-.05 1.24h.05l.74-.07.81-.08 1-.5 2.85-1.42.13-.79.13-.77-.13-.02-2.97-.44-.76-.12-1.05-.61-.16-.09-2.95.08-.69.68 1.34 1.41-1.34.73z"/><path d="m357.33 365.44-5.29-.39-12.06.16-3.7-.09-3.67 3v2.8l4.1 3.07 2.7.22 4.69-1.54 4-.07 2.08-1 1.12-2 3.51-1.85 2.65.06.05-.06.06-.09.05-.07a1.25 1.25 0 0 0 .09-.12l.05-.07.1-.14v-.05l.1-.13v-.05l.07-.12s0 0 0 0a.41.41 0 0 0 .05-.09s0 0 0 0 0-.06 0-.07-.7-1.27-.75-1.31z" transform="translate(70.33 .84)"/><path d="m394.14 373.2-1.73-1.2-.68-.47-1.88-.29-.89-.14-.71.99 1.27.99.33.22 2.4 1.66 1.68 1.16.21.14 1.63 1.12 1.66.96 1.87-.13-.28-1.31-1.38-1.37-1.5-.28-2-1.16-.21-.12.09-.31z"/><path d="m400.62 378.92-.89.32.21 1.45 1.96.24 1.1-.64-1.24-1.2z"/><path d="m421.85 376.38 1.54.26 2.41 1.38 2.89 1.04 2.48-.48.02-.46-2.67-.4-3.75-2.17-1.34-.18-1.76-.24-.65-.09-.47.13-2.09.6-.05.01-1.96 1.17-2.03.57-.94.26-.54 1.12-2.83 1.48-.3.46-.14.22.77.44 1.95-.59 3.33-1.61.3-.15 1.02.02v.11l-.02.58-1 .62-1.01.64-.46 1.04.84.48.63-.16.9-.23.12-.07 2.44-1.61.26-.76.72-.83.59-.02.45-.01.34.19 1.51.87.03.01.81.19.4-.53-1.21-.77-1.5-.95-.04-.06-.61-.84-.18-.25.47-.25z"/><path d="m435.27 382.99 1.54-.9-2.16-1.5-1.46.05-2 .68-.03.01-.91.31.5 1.02.41-.05h.02l2.12-.25z"/><path d="m405.83 383.58-1.88-.58.01 1.28 3.95 2.28 1.75.29.27.04.15-.86-.42-.24z"/><path d="m445.26 393.91-1.84-1.06-3.79-.59-.57-.09-1.89-.3-.3-1.02 2.19-1.28.58-1.53-2.84-1.24-.17-.08-1.18.05-.19.38-.25.51.25.52.24.51.11.25-.33.61-.27-.06-1.31-.3-1.61.64-.07.72 2.32 1.94 1.1 1.96.13.23-.01.04-.49 4.17-.25.32-1.93 2.32.41 2.28 2.98.7 1.91-.68 2.21 1.7.84 5.15 2.22 1.87 1.24-.21 1.3-4.85 1.75-1.62.4-6.89-2.36-2.64z"/><path d="m427.67 406.23-7.15 4.02-6.05 1.34-1.08-.94-.19-.17-1.27-1.12 1.29-4.47 3.52-1.66 2.97-.57.43-1.15-6.62-2.94-7.94-.63-2.31.95-1.55-1.66-11.25-1.53-13.55-.7-7.62-2.23-5.18.44-7.58 3.64-10.44 5.17-4.84 1.41.24 3.31 5.19.7 5.85 2.75 8.6 2.17 5.87 4.91-.97 3.64.96 1.18.6.73-1.57 1.54-3.91 3.83 3.22 3.89 8.5 3.51 12.22-1.6 16.96-1.53 9.33-7.08 4.82-3.19 1.2-3 5.38-3.51 2.94-5.05 4.4-3.06-.34-1.98z"/><path d="m353.89 434.46.42 3.64 4.29-1.26 3.27-1.12-1.97-2.87z"/></g></g><path d="m160.7.84-70.23 40.56 74.63 43.17 140.95-81.39-4.05-2.34z" fill="#6ec7ef" opacity=".2"/><path d="m137.18 41.57-66.41 38.34v86.17l.09.05 140.95-81.39z" fill="#6ec7ef" opacity=".2"/><path d="m345.54 169.58 115.14-66.48 60.96 35.27-115.13 66.48z" fill="#6ec7ef" opacity=".2"/><path d="m118.75 446.62 115.13-66.48 60.97 35.26-115.14 66.49z" fill="#6ec7ef" opacity=".2"/><path d="m161.18 143.87 115.13-66.49 60.97 35.27-115.14 66.48z" fill="#6ec7ef" opacity=".2"/><path d="m70.86 502.23 111.3-64.26-60.97-35.27-50.33 29.06z" fill="#6ec7ef" opacity=".2"/><path d="m570.33 207.86-.16-.09-115.14 66.48 60.97 35.27 54.33-31.37z" fill="#6ec7ef" opacity=".2"/><path d="m570.33.84h-102.72l-40.88 23.61 60.96 35.27 82.64-47.72z" fill="#6ec7ef" opacity=".2"/><path d="m506.36 153.22v55.05l-85.11-49.24v-55.05z" fill="#6ec7ef"/><path d="m437.49 244.84-18.83 12-8.39 7.75-320.56 68.93-5.36-4.93-23.75-5v18.41a3.06 3.06 0 0 0 1.53 2.75l3.81 2.2 116.18 67.2a5.61 5.61 0 0 0 5.63 0l239.48-138.23 14.61-8.43a5.41 5.41 0 0 0 2.73-4.92v-18.44z" fill="#5d5d6d" transform="translate(70.33 .84)"/><path d="m444.57 262.57v-18.44l-7.09.71-18.83 12-8.39 7.75-105.32 22.67-119.18 103v24.66a5.62 5.62 0 0 0 2-.69l239.47-138.31 14.61-8.43a5.41 5.41 0 0 0 2.73-4.92z" fill="#6c6c7a" transform="translate(70.33 .84)"/><path d="m145.6 340.49v7.11l-6.53-3.78v-7.1z" fill="#41404f"/><path d="m154.51 345.61v7.1l-6.53-3.77v-7.1z" fill="#41404f"/><path d="m163.42 350.73v7.1l-6.54-3.77v-7.1z" fill="#41404f"/><path d="m246.6 399.14v7.11l-20.33-11.78v-7.1z" fill="#41404f"/><path d="m285.49 386.48v7.1l20.32-11.77v-7.11z" fill="#41404f"/><path d="m159.17 312.94 219.4-126.69 116.17 67.2-219.4 126.69z" fill="#6ec7ef"/><path d="m378.57 186.25-103.23 193.89-116.17-67.2z" fill="#6ed5ef"/><path d="m485.7 258.67 9.04-5.22-116.17-67.2-9.04 5.22z" fill="#6ea7ef"/><path d="m275.35 380.14 9.03-5.22-116.17-67.21-9.04 5.23z" fill="#6ea7ef"/><path d="m492.07 253.4-3.59-2.08-6.22 3.59 3.59 2.08z" fill="#e6e7e8"/><path d="m487.67 250.85-3.58-2.07-6.22 3.59 3.58 2.08z" fill="#e6e7e8"/><path d="m483.28 248.32-3.59-2.08-6.22 3.59 3.59 2.08z" fill="#e6e7e8"/><path d="m478.88 245.78-3.59-2.08-6.22 3.59 3.59 2.08z" fill="#e6e7e8"/><path d="m439.8 223.29-10.2-5.93-6.22 3.59 10.21 5.93z" fill="#e6e7e8"/><path d="m281.03 374.51-10.2-5.94-6.22 3.59 10.2 5.94z" fill="#e6e7e8"/><path d="m226.91 343.26-10.2-5.93-6.22 3.59 10.2 5.93z" fill="#e6e7e8"/><path d="m178.93 315.45-10.21-5.94-6.22 3.59 10.21 5.94z" fill="#e6e7e8"/><path d="m441.85 239.57-.22-.12-116.17-67.21a5.66 5.66 0 0 0 -5.63 0l-233.83 134.99-23.86 13.77a3.09 3.09 0 0 0 0 5.34l3.81 2.2 116.18 67.2a5.61 5.61 0 0 0 5.63 0l239.47-138.26 14.61-8.42a5.48 5.48 0 0 0 .01-9.49zm-236.85 139.73-116.16-67.2 219.4-126.69 116.18 67.2z" fill="#41404f" transform="translate(70.33 .84)"/><path d="m416.14 277.4-.09-.09a.94.94 0 0 0 -.1-.1s0 0 0 0l-.07-.09-.07-.09s0 0 0 0l-.09-.14a1 1 0 0 1 -.07-.15s0-.08 0-.13 0 0 0 0v-.07a.5.5 0 0 1 0-.13v-.08-.11a.29.29 0 0 0 0-.09s0-.07 0-.1a.36.36 0 0 0 0-.1.28.28 0 0 0 0-.09s0-.08 0-.12a.25.25 0 0 1 0-.08c0-.05 0-.1 0-.15a.13.13 0 0 0 0-.06v-.43s0-.05 0-.07a.76.76 0 0 1 0-.15v-.08c0-.05 0-.1 0-.16a.13.13 0 0 1 0-.06 1.66 1.66 0 0 1 0-.22c0-.07 0-.13 0-.2s0 0 0-.08v-.15-.09-.14a.29.29 0 0 0 0-.09c0-.05 0-.11.05-.16s0-.05 0-.07a2.09 2.09 0 0 1 .08-.23c0-.07.05-.14.07-.21v-.06l.06-.16v-.08l.07-.16v-.06a1.47 1.47 0 0 1 .1-.22.14.14 0 0 1 0-.06.89.89 0 0 0 .08-.17l.06-.11a.67.67 0 0 0 .06-.12l.18-.3.06-.1a.75.75 0 0 1 .07-.12l.07-.12.08-.12.05-.07.22-.32.16-.21.13-.17.16-.19.05-.05.12-.13.07-.07.1-.11.07-.07.1-.1.03-.39.1-.09.09-.08.1-.08.08-.07.11-.09.08-.05.12-.09.06-.05.19-.12.19-.11.17-.1h.07l.13-.07h.06l.18-.08.18-.07h.06.12.07.11.07.1.08.68.15.11.06.08.11.05l.15.08-1.9-1.1-.14-.08h-.06a2.54 2.54 0 0 0 -1.76 0 5.35 5.35 0 0 0 -1.57.87h-.05l-.07.06a8.68 8.68 0 0 0 -3.08 5.83 3.83 3.83 0 0 0 .44 2.28l.07.09a.08.08 0 0 0 0 0l.07.08.1.11.09.08.08.06.12.08 1.89 1.1-.11-.07z" fill="#565668" transform="translate(70.33 .84)"/><path d="m419.16 268.2a8.68 8.68 0 0 0 -3.94 6.83c0 2.5 1.78 3.52 4 2.26a8.69 8.69 0 0 0 3.94-6.83c-.04-2.46-1.81-3.52-4-2.26z" fill="#878796" transform="translate(70.33 .84)"/><path d="m395.71 289.2-.1-.08-.1-.11a.27.27 0 0 1 -.07-.08l-.07-.09s-.05-.09-.08-.14a1 1 0 0 1 -.07-.15s0 0 0 0a.69.69 0 0 0 0-.13.19.19 0 0 0 0-.07.65.65 0 0 1 0-.13v-.08-.11a.29.29 0 0 0 0-.09.3.3 0 0 0 0-.1s0-.07 0-.11a.24.24 0 0 1 0-.08s0-.08 0-.12a.25.25 0 0 1 0-.08.76.76 0 0 1 0-.15s0 0 0-.06v-.43a.17.17 0 0 1 0-.07.76.76 0 0 1 0-.15v-.08c0-.05 0-.1 0-.16v-.06c0-.08 0-.15 0-.23a1.62 1.62 0 0 1 0-.19s0-.05 0-.08v-.15a.29.29 0 0 0 0-.09 1 1 0 0 0 0-.14v-.09a.94.94 0 0 1 0-.16s0-.05 0-.07 0-.15.07-.23c0-.07.05-.14.07-.21v-.07l.06-.15v-.08c0-.06.05-.11.07-.17v-.05l.09-.22v-.06l.08-.17.06-.11.06-.12.18-.3a.6.6 0 0 1 .06-.11l.07-.12.07-.1.08-.13.05-.07.22-.32.16-.21.13-.17c0-.07.11-.13.16-.19l.05-.05.12-.13.07-.07.1-.11.07-.07.1-.1.09-.08.1-.09.08-.07.1-.09.08-.06.11-.09.07-.05.13-.09.06-.05.19-.12.19-.12.18-.09h.06l.13-.07h.06l.18-.08.18-.07h.06.12.07a.35.35 0 0 1 .11 0h.07.1.76.14.11.06.08.11l.15.08-1.9-1.1-.15-.08h-.05a2.48 2.48 0 0 0 -1.76 0 5.11 5.11 0 0 0 -1.57.86l-.08.06a8.68 8.68 0 0 0 -3.08 5.83 3.85 3.85 0 0 0 .44 2.28l.06.1.07.08.1.11.09.08.08.06.12.08 1.89 1.1-.11-.07z" fill="#565668" transform="translate(70.33 .84)"/><path d="m398.73 280a8.69 8.69 0 0 0 -3.94 6.83c0 2.51 1.78 3.53 4 2.26a8.67 8.67 0 0 0 3.94-6.82c-.03-2.52-1.81-3.54-4-2.27z" fill="#878796" transform="translate(70.33 .84)"/><path d="m438.59 142.93-83.87-48.53a1.67 1.67 0 0 0 -1.69 0l-3.21 1.87 2.36 8.44v55.54a5.66 5.66 0 0 0 2.83 4.9l80.82 46.76.94 2.54 3.23-1.87a3.07 3.07 0 0 0 1.57-2.69v-61.89a5.87 5.87 0 0 0 -2.98-5.07z" fill="#6c6c7a" transform="translate(70.33 .84)"/><path d="m438.3 149.91v61.86a3.08 3.08 0 0 1 -4.62 2.67l-81.93-47.44a5.66 5.66 0 0 1 -2.83-4.9v-64.34a1.7 1.7 0 0 1 2.56-1.48l83.88 48.53a5.88 5.88 0 0 1 2.94 5.1z" fill="#41404f" transform="translate(70.33 .84)"/><path d="m506.36 153.22v55.05l-85.11-49.24v-55.05z" fill="#ec983b"/><path d="m443.03 123.85v-2.01l-18.03-10.43v2.01z" fill="#e6e7e8"/><path d="m443.03 127.71v-2.01l-18.03-10.43v2.01z" fill="#e6e7e8"/><path d="m443.03 131.56v-2l-18.03-10.44v2.01z" fill="#e6e7e8"/><path d="m453.14 127.79v2.01l18.03 10.43v-2.01z" fill="#e6e7e8"/><path d="m453.14 133.66 18.03 10.43v-2.01l-18.03-10.43z" fill="#e6e7e8"/><path d="m453.14 137.51 18.03 10.43v-2.01l-18.03-10.43z" fill="#e6e7e8"/><path d="m453.14 147.18 18.03 10.43v-2.01l-18.03-10.43z" fill="#e6e7e8"/><path d="m453.14 151.03 18.03 10.43v-2l-18.03-10.44z" fill="#e6e7e8"/><path d="m453.14 154.89 18.03 10.43v-2.01l-18.03-10.43z" fill="#e6e7e8"/><path d="m453.14 164.55 18.03 10.44v-2.01l-18.03-10.44z" fill="#e6e7e8"/><path d="m453.14 168.41 18.03 10.43v-2.01l-18.03-10.43z" fill="#e6e7e8"/><path d="m453.14 172.26 18.03 10.44v-2.01l-18.03-10.44z" fill="#e6e7e8"/><path d="m443.03 135.42v-2.01l-18.03-10.43v2.01z" fill="#e6e7e8"/><path d="m484.61 169.35-6.38-3.68v20.87l6.38 3.68z" fill="#e6e7e8"/><path d="m493.04 162.93-6.38-3.69v32.18l6.38 3.69z" fill="#e6e7e8"/><path d="m501.46 156.54-6.37-3.69v43.46l6.37 3.69z" fill="#e6e7e8"/><path d="m365.32 148.69v-11.69c-.2-.13-.4-.27-.6-.38-5.53-3.2-10-.63-10.05 5.73s4.45 14.1 10 17.29 10 .63 10-5.72c0-.1 0-.2 0-.29z" fill="#e6e7e8" transform="translate(70.33 .84)"/><path d="m383.41 260.37-16.09-9.37a5.63 5.63 0 0 0 -5.64 0l-16.81 9.71a3.67 3.67 0 0 0 0 6.36l15.13 8.82a6.66 6.66 0 0 0 3.36.9 6.74 6.74 0 0 0 3.34-.89l16.68-9.64a3.4 3.4 0 0 0 0-5.89zm-1 4.12-16.69 9.63a4.61 4.61 0 0 1 -4.64 0l-15.16-8.82a1.63 1.63 0 0 1 0-2.82l16.81-9.71a3.63 3.63 0 0 1 3.59 0l16.09 9.37a1.36 1.36 0 0 1 0 2.35z" fill="#e6e7e8" transform="translate(70.33 .84)"/><path d="m346.86 241.16a3.39 3.39 0 0 0 -1.7-2.95l-16.09-9.37a5.65 5.65 0 0 0 -5.64 0l-16.81 9.71a3.68 3.68 0 0 0 0 6.37l15.16 8.82a6.72 6.72 0 0 0 6.7 0l16.68-9.64a3.37 3.37 0 0 0 1.7-2.94zm-2.73 1.17-16.68 9.67a4.65 4.65 0 0 1 -4.65 0l-15.16-8.83a1.63 1.63 0 0 1 0-2.82l16.81-9.7a3.56 3.56 0 0 1 1.79-.48 3.62 3.62 0 0 1 1.8.48l16.09 9.35a1.36 1.36 0 0 1 0 2.35z" fill="#e6e7e8" transform="translate(70.33 .84)"/><path d="m308.61 219a3.38 3.38 0 0 0 -1.69-2.95l-16.1-9.36a5.63 5.63 0 0 0 -5.64 0l-16.81 9.7a3.68 3.68 0 0 0 0 6.37l15.16 8.82a6.72 6.72 0 0 0 3.36.9 6.61 6.61 0 0 0 3.34-.89l16.68-9.59a3.39 3.39 0 0 0 1.7-3zm-2.73 1.17-16.68 9.64a4.65 4.65 0 0 1 -4.65 0l-15.16-8.81a1.63 1.63 0 0 1 0-2.82l16.81-9.71a3.55 3.55 0 0 1 1.8-.47 3.51 3.51 0 0 1 1.8.49l16.1 9.36a1.36 1.36 0 0 1 0 2.35z" fill="#e6e7e8" transform="translate(70.33 .84)"/><path d="m235.69 129.45v55.05l85.11-49.23v-55.05z" fill="#6ec7ef"/><path d="m125.38 221.15v55.04l85.11-49.23v-55.05z" fill="#6ec7ef"/><g transform="translate(70.33 .84)"><path d="m399.72 241.63a3.34 3.34 0 0 0 -.16-.79 4.89 4.89 0 0 0 -.2-.48 4.13 4.13 0 0 0 -.65-.9 5.78 5.78 0 0 0 -1.36-1 8.54 8.54 0 0 0 -2.19-.89 12 12 0 0 0 -2.66-.42h-.72c-.23 0-.47 0-.7 0a1.23 1.23 0 0 0 -.54.17c-.1.06-.25.19-.25.32a.42.42 0 0 0 .24.35 2.32 2.32 0 0 0 1.17.12 9.16 9.16 0 0 1 4.53 1.08 3.2 3.2 0 0 1 1.83 2.43v.35a.41.41 0 0 0 .24.34 1.18 1.18 0 0 0 .6.14 1.28 1.28 0 0 0 .63-.18.63.63 0 0 0 .19-.64z" fill="#e6e7e8"/><path d="m396.67 241.56a2.07 2.07 0 0 0 -.41-1.08 3.54 3.54 0 0 0 -1-.82 6.59 6.59 0 0 0 -3.29-.77 4.1 4.1 0 0 0 -1.11 0c-.22 0-.54.2-.54.47a.45.45 0 0 0 .27.36 1.36 1.36 0 0 0 .66.17h.68a4.2 4.2 0 0 1 2.07.5 1.87 1.87 0 0 1 .71.66 1.09 1.09 0 0 1 .15.39c0 .18-.06.35 0 .52a.51.51 0 0 0 .24.28c.48.27 1.48.26 1.56-.44a.75.75 0 0 0 .01-.24z" fill="#e6e7e8"/><path d="m392.8 241.05a2.19 2.19 0 0 0 -2.05 0c-.56.32-.6.86 0 1.2a2.23 2.23 0 0 0 2 0c.62-.36.61-.88.05-1.2z" fill="#e6e7e8"/><path d="m235.24 349.5-22.34-12.89a2.1 2.1 0 0 0 -2.11 0l-22.19 12.76a2.12 2.12 0 0 0 0 3.67l22.33 12.89a2.1 2.1 0 0 0 2.11 0l22.2-12.77a2.11 2.11 0 0 0 0-3.66z" fill="#2b3990" opacity=".2"/><path d="m161.39 305.1-22.33-12.89a2.11 2.11 0 0 0 -2.12 0l-22.19 12.79a2.12 2.12 0 0 0 0 3.67l22.33 12.89a2.14 2.14 0 0 0 2.11 0l22.2-12.77a2.12 2.12 0 0 0 0-3.69z" fill="#2b3990" opacity=".2"/><path d="m207.54 278.2-22.34-12.89a2.14 2.14 0 0 0 -2.11 0l-22.19 12.77a2.12 2.12 0 0 0 0 3.67l22.33 12.89a2.1 2.1 0 0 0 2.11 0l22.2-12.77a2.12 2.12 0 0 0 0-3.67z" fill="#2b3990" opacity=".2"/><path d="m248.64 254.29-22.33-12.89a2.1 2.1 0 0 0 -2.11 0l-22.2 12.77a2.11 2.11 0 0 0 0 3.66l22.34 12.89a2.1 2.1 0 0 0 2.11 0l22.19-12.72a2.11 2.11 0 0 0 0-3.71z" fill="#2b3990" opacity=".2"/><path d="m281.75 321.93-22.33-12.93a2.11 2.11 0 0 0 -2.12 0l-22.19 12.77a2.11 2.11 0 0 0 0 3.66l22.33 12.89a2.1 2.1 0 0 0 2.11 0l22.2-12.77a2.11 2.11 0 0 0 0-3.62z" fill="#2b3990" opacity=".2"/><path d="m323.59 298-22.33-12.89a2.12 2.12 0 0 0 -2.11 0l-22.15 12.77a2.11 2.11 0 0 0 0 3.66l22.34 12.89a2.1 2.1 0 0 0 2.11 0l22.19-12.77a2.11 2.11 0 0 0 -.05-3.66z" fill="#2b3990" opacity=".2"/><path d="m235.72 243.76a7.7 7.7 0 0 0 3.51-.73c1.13-.76 3.77 2.42 1.17 4.1s-5.3 3.37-6.7 3.13-2.17-.49-2.29-.81-.16-5.93-.16-5.93z" fill="#363142"/><path d="m236.71 239.52v6.41s-3.62 1.59-6 .67l-.9-4.26z" fill="#a55932"/><path d="m246 247.44a7.7 7.7 0 0 0 3.51-.73c1.13-.76 3.77 2.42 1.17 4.1s-5.3 3.37-6.7 3.13-2.17-.48-2.29-.81-.16-5.93-.16-5.93z" fill="#363142"/><path d="m245.43 219.56a29.74 29.74 0 0 1 1.79-2.76c.79-1 1.86-2.68.88-3.51s-2.86-1.84-3.75-1.79-2.31 1.22-1.83 1.79-.41 3.37-.41 3.37z" fill="#f7ca82"/><path d="m211.45 201.28a3.61 3.61 0 0 1 3.72-1l2.79.83 7.62 3.55 5.28 2.77.45 16.86.53 8.23-3.13 2.65c-3.73 3.49-15.16-2.65-15.16-2.65-1.93-6.38-4.76-23.95-4.76-23.95a11.11 11.11 0 0 1 2.66-7.29z" fill="#e6e7e8"/><path d="m230.58 228.18s8-1.68 12.87-2.12a3.14 3.14 0 0 1 3.42 3 153.35 153.35 0 0 1 -.17 19.61l-2.95 1.85a2.08 2.08 0 0 1 -3.18-1.66l-.57-10.92c0-.93-1.15.2-1.86.8-2.22 1.91-7.59 4.07-10.85 2.93 0 0-9.78-3-12.13-9.4z" fill="#a55932"/><path d="m225.79 243.76 2.76-1.42-1.55 24.3a1.49 1.49 0 0 1 -.47 1 2 2 0 0 1 -1 .51c-.69.11-1.29-.62-1.23-1.49z" fill="#d1d3d4"/><path d="m205.87 233.55 2.69-1.42-1.79 22.38a1.58 1.58 0 0 1 -.49 1.05 2 2 0 0 1 -.79.46c-.76.22-1.45-.6-1.37-1.58z" fill="#d1d3d4"/><path d="m242.76 238.43 3.2 19.5a1.25 1.25 0 0 1 -.91 1.51c-.43.12-.86-.25-1-.83l-3.86-19.28z" fill="#d1d3d4"/><path d="m220.53 186.51c1.83-.3 2.86-.65 4.62-.13 3 .88 4.53 3.68 5.25 6.49s.93 7-.69 9.6c-1 1.64-3.27 1.33-4.89.91a19.07 19.07 0 0 1 -6.1-2.57c-2.22-1.68-3.4-5.37-3.54-8-.11-2.32 2.57-5.81 5.35-6.3z" fill="#f7ca82"/><path d="m218 200.11a5.46 5.46 0 0 0 .75.7 19.07 19.07 0 0 0 6.1 2.57c.31.08.65.15 1 .21l-.24 1.06a15.32 15.32 0 0 1 -5.67.34 2.22 2.22 0 0 1 -1.95-2.2v-2.68z" fill="#f7b378"/><path d="m228.05 206.94s4.39-.12 5.48 2.95 3.55 9.2 3.55 9.2 3.73-2.89 5.11-3.25c0 0 3.07 1.57 3.79 3.25 0 0-4.63 8-10.29 10.35a39.44 39.44 0 0 1 -9.1-14s-3.66-6.03 1.46-8.5z" fill="#f1f2f2"/><path d="m206.91 209.51c11.5 2.39 17.34 8.53 19.18 10.84a3 3 0 0 1 .66 1.9v22.1c-15.41-2.57-22-11.64-22-11.64v-21.45a1.79 1.79 0 0 1 2.16-1.75z" fill="#1c75bc"/><path d="m226.75 244.35s13.25-1.35 17.37-5.92c0 0 .3-3.09-1-2.67s-7.26 4.1-16.4 5.06z" fill="#1c75bc"/><path d="m229.48 187.88 2.05-.86a15.67 15.67 0 0 0 -11-.94 5.1 5.1 0 0 0 -1.46.46c-2 1-4 4-3.85 6.24.14 2.66 1.32 6.35 3.54 8a16 16 0 0 0 4.64 2.22c.45-.21 1.13-2.7 1.13-2.7-.93-.54-1.65-3.64-.66-4.18s1.66 1.38 1.66 1.38a1.47 1.47 0 0 0 1-2 2.85 2.85 0 0 1 -.22-1.11 1.29 1.29 0 0 1 1.2-1.26c.3 0 .59 0 .86-.09a29.22 29.22 0 0 1 4.91.14 18 18 0 0 0 -3.8-5.3z" fill="#b64d50"/><path d="m310.43 287.48a7.81 7.81 0 0 0 3.51-.72c1.12-.76 3.77 2.41 1.16 4.09s-5.3 3.37-6.7 3.13-2.17-.48-2.28-.8-.17-5.94-.17-5.94z" fill="#9d5932"/><path d="m311.41 283.25v6.41s-3.61 1.58-6 .66l-.9-4.26z" fill="#363142"/><path d="m320.69 291.16a7.81 7.81 0 0 0 3.51-.72c1.12-.76 3.77 2.41 1.16 4.09s-5.29 3.37-6.7 3.13-2.17-.48-2.29-.8-.16-5.94-.16-5.94z" fill="#9d5932"/><path d="m286.5 245.34a3.86 3.86 0 0 1 3.82-1.21l2.34.7 7.63 3.55 5.27 2.76.44 16.86.53 8.24-3.12 2.64c-3.73 3.5-15.17-2.64-15.17-2.64-1.92-6.38-4-23.73-4-23.73.1-3.62 1.06-5.82 2.26-7.17z" fill="#c49a6c"/><path d="m305.28 271.9s9.14-1.87 14-2.31a3.13 3.13 0 0 1 3.41 3c.21 4.43-.68 13.16-1.32 19.81l-3 1.84a2.08 2.08 0 0 1 -3.18-1.65l-.54-10.9c-.05-.93-1.16.2-1.86.81-2.23 1.91-7.59 4.06-10.86 2.92 0 0-9.78-3-12.13-9.39z" fill="#41404f"/><path d="m300.5 287.49 2.76-1.43-1.58 24.3a1.46 1.46 0 0 1 -.48 1 2 2 0 0 1 -1 .52c-.7.11-1.3-.63-1.24-1.5z" fill="#d1d3d4"/><path d="m280.57 277.28 2.69-1.43-1.79 22.39a1.57 1.57 0 0 1 -.48 1.05 2.3 2.3 0 0 1 -.8.46c-.75.22-1.45-.61-1.36-1.59z" fill="#d1d3d4"/><path d="m317.46 282.15 3.2 19.5a1.33 1.33 0 0 1 -.31 1.17 1.58 1.58 0 0 1 -.6.35c-.43.12-.86-.26-1-.84l-3.87-19.28z" fill="#d1d3d4"/><path d="m295.24 230.23c1.82-.3 2.85-.64 4.61-.12 3 .87 4.53 3.68 5.25 6.49s.93 7-.69 9.59c-1 1.64-3.27 1.34-4.88.91a19.07 19.07 0 0 1 -6.1-2.57c-2.23-1.68-3.41-5.36-3.54-8-.12-2.32 2.57-5.84 5.35-6.3z" fill="#f7ca82"/><path d="m299.53 247.1a19.07 19.07 0 0 1 -6.1-2.57 5.45 5.45 0 0 1 -.76-.69v2.68a3.59 3.59 0 0 0 2.9 1.61c1.48.16 2.65.81 4.73.25l.23-1.07c-.35-.06-.69-.13-1-.21z" fill="#f7b378"/><path d="m281.61 253.24c11.51 2.39 17.34 8.53 19.18 10.83a3.07 3.07 0 0 1 .66 1.91v22.09c-15.41-2.57-22-11.63-22-11.63v-21.44a1.78 1.78 0 0 1 2.16-1.76z" fill="#1c75bc"/><path d="m301.45 288.07s13.28-1.33 17.37-5.92c0 0 .3-3.09-1-2.66s-7.27 4.09-16.41 5.05z" fill="#1c75bc"/><path d="m292.5 244.36-.59 1.78a8.25 8.25 0 0 0 9.38 2.76l-.84-1.05s-5.45.15-7.95-3.49z" fill="#e6e7e8"/><path d="m319.9 267.47a8.28 8.28 0 0 1 1.85-.22c.68.05 1.14.87 1.69 1.18a3.41 3.41 0 0 1 1.49 2.59c0 1.18-.53 2.49-1.18 2.48s-.8.13-1-.35a23.46 23.46 0 0 0 -1.35-2.16z" fill="#f7ca82"/><path d="m320.5 266.79c-1.38.36-9.07.92-9.07.92s-.93-9.77-2-12.84a6.14 6.14 0 0 0 -4-3.79c-5.11 2.47-2.45 8.86-2.45 8.86a75.28 75.28 0 0 1 3.36 12.49 2 2 0 0 0 2.28 1.62c6.81-1.11 13.22-2.67 13.22-2.67a8.74 8.74 0 0 0 -1.34-4.59z" fill="#e6e7e8"/><path d="m305 231.43c-4.2-3.5-10-1.59-10-1.59a5.18 5.18 0 0 0 -1.26.42c-2 1-4 4-3.85 6.24.13 2.67 1.31 6.35 3.54 8a16.18 16.18 0 0 0 4.67 2.16c.45-.22 1.14-2.71 1.14-2.71-.94-.54-1.66-3.64-.66-4.18s1.65 1.38 1.65 1.38a1.47 1.47 0 0 0 1-2 3.44 3.44 0 0 1 0-2.35c4.15-.11 4.68 1.36 4.68 1.36a6.25 6.25 0 0 0 -.91-6.73z" fill="#8e4d50"/><path d="m194.13 267.67a7.81 7.81 0 0 0 3.51-.72c1.12-.76 3.77 2.42 1.16 4.1s-5.3 3.36-6.7 3.12-2.17-.48-2.29-.8-.16-5.94-.16-5.94z" fill="#1c75bc"/><path d="m195.11 263.44v6.41s-3.61 1.58-6 .67l-.9-4.27z" fill="#363142"/><path d="m204.38 271.35a7.79 7.79 0 0 0 3.51-.72c1.13-.76 3.77 2.41 1.17 4.1s-5.3 3.36-6.7 3.12-2.17-.48-2.29-.8-.16-5.94-.16-5.94z" fill="#1c75bc"/><path d="m169.86 225.2a3.57 3.57 0 0 1 3.71-1l2.79.83 7.62 3.55 5.28 2.76.45 16.87.53 8.23-3.13 2.65c-3.73 3.49-15.16-2.65-15.16-2.65-1.93-6.38-4.75-24-4.75-24a11 11 0 0 1 2.66-7.24z" fill="#ef4661"/><path d="m189 252.1s8-1.69 12.88-2.12a3.12 3.12 0 0 1 3.41 3 155 155 0 0 1 -.16 19.61l-3 1.85a2.08 2.08 0 0 1 -3.18-1.66l-.54-10.9c-.05-.93-1.16.2-1.87.81-2.22 1.91-7.58 4.06-10.85 2.92 0 0-9.78-3-12.13-9.39z" fill="#363142"/><path d="m184.19 267.68 2.77-1.43-1.58 24.31a1.45 1.45 0 0 1 -.48 1 2 2 0 0 1 -1 .52c-.69.11-1.29-.63-1.23-1.5z" fill="#d1d3d4"/><path d="m164.27 257.47 2.69-1.42-1.79 22.38a1.61 1.61 0 0 1 -.48 1.05 2.15 2.15 0 0 1 -.8.46c-.76.22-1.45-.61-1.37-1.59z" fill="#d1d3d4"/><path d="m201.16 262.35 3.2 19.49a1.33 1.33 0 0 1 -.36 1.16 1.45 1.45 0 0 1 -.59.34c-.43.12-.86-.26-1-.84l-3.87-19.27z" fill="#d1d3d4"/><path d="m178.94 210.42c1.82-.29 2.85-.64 4.61-.12 3 .87 4.53 3.68 5.25 6.49s.93 7-.69 9.59c-1 1.65-3.27 1.34-4.89.91a19.12 19.12 0 0 1 -6.09-2.56c-2.23-1.69-3.41-5.37-3.54-8-.12-2.33 2.56-5.85 5.35-6.31z" fill="#f7ca82"/><path d="m176.37 224a6.24 6.24 0 0 0 .76.7 19.12 19.12 0 0 0 6.09 2.56c.32.08.65.16 1 .22l-.24 1.06c-2.07.57-3.15.1-4.62-.07-1.12-.12-3-.67-3-1.79v-2.68z" fill="#f7b378"/><path d="m165.31 233.43c11.5 2.39 17.34 8.53 19.18 10.84a3 3 0 0 1 .66 1.9v22.09c-15.41-2.56-22-11.63-22-11.63v-21.46a1.79 1.79 0 0 1 2.16-1.74z" fill="#1c75bc"/><path d="m185.15 268.26s13.28-1.32 17.37-5.91c0 0 .3-3.09-1-2.67s-7.27 4.09-16.41 5.05z" fill="#1c75bc"/><path d="m203.2 246.89a8.28 8.28 0 0 1 1.85-.22c.69.05 1.14.87 1.69 1.18a3.44 3.44 0 0 1 1.5 2.59c0 1.18-.54 2.48-1.19 2.48s-.79.13-1-.36a21.45 21.45 0 0 0 -1.35-2.16z" fill="#f7ca82"/><path d="m202.46 246.53 1.35-.28a10 10 0 0 1 1.15 4.28l-1.18.27z" fill="#e6e7e8"/><path d="m202.87 246.31c-1.39.36-9.07.92-9.07.92s-.94-9.78-2-12.84a6.17 6.17 0 0 0 -4-3.79c-5.11 2.46-2.44 8.85-2.44 8.85a76 76 0 0 1 3.35 12.49 2 2 0 0 0 2.29 1.62c6.81-1.11 13.22-2.66 13.22-2.66a8.7 8.7 0 0 0 -1.35-4.59z" fill="#ef5f61"/><path d="m188.66 216.34s5.1-5.38 0-6.86-10-1.42-13.64.39-3.24 7.18-2.56 8.5a25.18 25.18 0 0 0 4.19 6 .53.53 0 0 0 .22.12l.26.22a16.16 16.16 0 0 0 4.67 2.15c.45-.22 1.14-2.7 1.14-2.7-.94-.55-1.66-3.65-.67-4.19s1.66 1.39 1.66 1.39a1.48 1.48 0 0 0 1-2 3.41 3.41 0 0 1 0-2.34 8.62 8.62 0 0 0 3.73-.68z" fill="#fba140"/><path d="m176.36 224.53-.82 1.82a7.24 7.24 0 0 0 9.07 2.55l-.46-1.1s-5.34.36-7.79-3.27z" fill="#e6e7e8"/><path d="m268.83 311.4a7.79 7.79 0 0 0 3.51-.72c1.12-.77 3.77 2.41 1.16 4.09s-5.29 3.37-6.7 3.13-2.16-.48-2.28-.81-.16-5.93-.16-5.93z" fill="#9d5932"/><path d="m269.82 307.16v6.41s-3.62 1.59-6 .67l-.9-4.26z" fill="#363142"/><path d="m279.09 315.08a7.72 7.72 0 0 0 3.51-.73c1.12-.76 3.77 2.42 1.16 4.1s-5.29 3.37-6.7 3.13-2.16-.48-2.28-.81-.17-5.93-.17-5.93z" fill="#9d5932"/><path d="m278.54 287.2a31.08 31.08 0 0 1 1.78-2.76c.8-1 1.87-2.68.88-3.51s-2.85-1.84-3.74-1.79-2.32 1.22-1.84 1.79-.41 3.37-.41 3.37z" fill="#f7ca82"/><path d="m244.56 268.92a3.6 3.6 0 0 1 3.72-1l2.79.83 7.62 3.55 5.27 2.77.45 16.86.54 8.23-3.13 2.65c-3.73 3.49-15.17-2.65-15.17-2.65-1.92-6.37-4.75-23.94-4.75-23.94a11.12 11.12 0 0 1 2.66-7.3z" fill="#f9dc32"/><path d="m263.68 295.82s8-1.68 12.88-2.12a3.13 3.13 0 0 1 3.41 3 153.14 153.14 0 0 1 -.16 19.61l-2.95 1.85a2.08 2.08 0 0 1 -3.18-1.66l-.55-10.89c-.05-.93-1.16.2-1.86.8-2.23 1.91-7.59 4.07-10.85 2.93 0 0-9.79-3-12.14-9.4z" fill="#363142"/><path d="m258.9 311.4 2.76-1.42-1.58 24.3a1.53 1.53 0 0 1 -.47 1 2.06 2.06 0 0 1 -1 .51c-.7.12-1.29-.62-1.24-1.49z" fill="#d1d3d4"/><path d="m239 301.19 2.69-1.42-1.79 22.38a1.62 1.62 0 0 1 -.48 1.06 2.11 2.11 0 0 1 -.8.45c-.75.22-1.44-.6-1.36-1.58z" fill="#d1d3d4"/><path d="m275.87 306.07 3.2 19.5a1.37 1.37 0 0 1 -.32 1.17 1.46 1.46 0 0 1 -.59.34c-.44.12-.86-.25-1-.83l-3.85-19.25z" fill="#d1d3d4"/><path d="m253.64 254.15c1.82-.3 2.85-.65 4.61-.13 3 .88 4.54 3.69 5.25 6.5s.93 7-.69 9.59c-1 1.64-3.27 1.33-4.88.91a19.07 19.07 0 0 1 -6.1-2.57c-2.23-1.68-3.41-5.37-3.54-8-.12-2.33 2.57-5.85 5.35-6.3z" fill="#f7ca82"/><path d="m251.07 267.75a5.53 5.53 0 0 0 .76.7 19.07 19.07 0 0 0 6.1 2.57c.31.08.65.15 1 .21l-.23 1.06a15.33 15.33 0 0 1 -5.67.34 2.21 2.21 0 0 1 -2-2.2v-2.68z" fill="#f7b378"/><path d="m261.16 274.58s4.39-.12 5.47 2.95 3.55 9.2 3.55 9.2 3.73-2.88 5.12-3.24c0 0 3.07 1.56 3.79 3.24 0 0-4.64 8-10.29 10.36a39.64 39.64 0 0 1 -9.11-14s-3.69-6.04 1.47-8.51z" fill="#ffe252"/><path d="m240 277.16c11.51 2.38 17.35 8.52 19.19 10.83a3 3 0 0 1 .65 1.9v22.11c-15.4-2.57-22-11.63-22-11.63v-21.47a1.77 1.77 0 0 1 2.16-1.74z" fill="#1c75bc"/><path d="m259.85 312s13.28-1.33 17.37-5.92c0 0 .3-3.09-1-2.67s-7.26 4.1-16.41 5.06z" fill="#1c75bc"/><path d="m263.36 260.06s3.26-2.82 1-4.36c-.7-.48-1.45-.52-2-1.22a6.75 6.75 0 0 0 -2.1-2c-.79-.41-1.46.38-2.2.58-1.39.37-2.43-1.24-3.78-.87a4.85 4.85 0 0 0 -1.23.74c-1 .65-3.72.13-3.61 1.92a2.69 2.69 0 0 1 -1.2 2.44 2.34 2.34 0 0 0 -1.18 2.39 6.12 6.12 0 0 0 .55 1.12 4.82 4.82 0 0 1 .29 1.51 5.63 5.63 0 0 0 1.1 3.09 12 12 0 0 0 7.51 5.2c.46-.22 1.14-2.7 1.14-2.7-.93-.54-1.66-3.64-.66-4.18s1.65 1.38 1.65 1.38a1.47 1.47 0 0 0 1-2 3.41 3.41 0 0 1 0-2.34 8.44 8.44 0 0 0 3.72-.7z" fill="#414042"/><path d="m147.05 295.24a7.81 7.81 0 0 0 3.51-.72c1.12-.76 3.77 2.41 1.16 4.1s-5.3 3.36-6.7 3.12-2.17-.48-2.29-.8-.16-5.94-.16-5.94z" fill="#9d5932"/><path d="m148 291v6.41s-3.61 1.58-6 .66l-.9-4.26z" fill="#363142"/><path d="m157.3 298.92a7.84 7.84 0 0 0 3.52-.72c1.12-.76 3.77 2.42 1.16 4.1s-5.3 3.36-6.7 3.12-2.17-.48-2.29-.8-.16-5.94-.16-5.94z" fill="#9d5932"/><path d="m156.75 271.05a30.78 30.78 0 0 1 1.79-2.77c.8-1 1.87-2.67.88-3.51s-2.85-1.84-3.74-1.78-2.32 1.21-1.84 1.79-.41 3.37-.41 3.37z" fill="#f7ca82"/><path d="m122.78 252.77a3.57 3.57 0 0 1 3.71-1l2.79.83 7.63 3.55 5.27 2.76.45 16.87.53 8.23-3.16 2.64c-3.74 3.49-15.17-2.65-15.17-2.65-1.93-6.38-4.75-23.95-4.75-23.95a11.09 11.09 0 0 1 2.7-7.28z" fill="#00a79d"/><path d="m141.9 279.67s8-1.69 12.88-2.13a3.13 3.13 0 0 1 3.41 3 153.14 153.14 0 0 1 -.16 19.61l-3 1.85a2.08 2.08 0 0 1 -3.18-1.66l-.54-10.9c0-.93-1.16.2-1.86.81-2.23 1.91-7.59 4.06-10.86 2.92 0 0-9.78-3-12.13-9.39z" fill="#363142"/><path d="m137.11 295.25 2.77-1.43-1.58 24.31a1.5 1.5 0 0 1 -.48 1 2.08 2.08 0 0 1 -1 .51c-.7.11-1.3-.63-1.24-1.5z" fill="#d1d3d4"/><path d="m117.19 285 2.69-1.43-1.79 22.43a1.57 1.57 0 0 1 -.48 1.05 2.15 2.15 0 0 1 -.8.46c-.75.22-1.45-.61-1.36-1.59z" fill="#d1d3d4"/><path d="m154.08 289.91 3.2 19.5a1.33 1.33 0 0 1 -.31 1.17 1.46 1.46 0 0 1 -.6.35c-.43.12-.86-.26-1-.84l-3.87-19.27z" fill="#d1d3d4"/><path d="m131.86 238c1.82-.3 2.85-.64 4.61-.12 3 .87 4.53 3.68 5.25 6.49s.93 7-.69 9.59c-1 1.65-3.27 1.34-4.88.91a19.07 19.07 0 0 1 -6.1-2.57c-2.23-1.68-3.41-5.36-3.54-8-.12-2.3 2.57-5.85 5.35-6.3z" fill="#f7ca82"/><path d="m130.36 238c1.64-.84 4.35-.67 6.11-.15 2.8.82 4.34 3.43 5.11 6a8.5 8.5 0 0 1 -3.77.67 3.44 3.44 0 0 0 0 2.35 1.48 1.48 0 0 1 -1 2s-.66-1.93-1.66-1.39-.27 3.64.67 4.18c0 0-.69 2.49-1.14 2.71a15.92 15.92 0 0 1 -4.67-2.16c-2.23-1.68-3.41-5.36-3.54-8-.08-2.21 1.92-5.21 3.89-6.21z" fill="#b64d50"/><path d="m129.29 251.6a5.45 5.45 0 0 0 .76.69 19.07 19.07 0 0 0 6.1 2.57c.31.08.64.16 1 .22l-.23 1.06a15.31 15.31 0 0 1 -5.67.33 2.2 2.2 0 0 1 -2-2.19v-2.68z" fill="#f7b378"/><path d="m139.37 258.42s4.4-.12 5.48 2.95 3.55 9.21 3.55 9.21 3.73-2.89 5.11-3.25c0 0 3.07 1.56 3.79 3.25 0 0-4.63 8-10.29 10.35a39.71 39.71 0 0 1 -9.1-14s-3.65-6.04 1.46-8.51z" fill="#10c1b0"/><path d="m118.23 261c11.5 2.39 17.34 8.53 19.18 10.83a3.07 3.07 0 0 1 .66 1.91v22.09c-15.41-2.56-22-11.63-22-11.63v-21.46a1.78 1.78 0 0 1 2.16-1.74z" fill="#1c75bc"/><path d="m138.07 295.83s13.28-1.32 17.37-5.92c0 0 .3-3.08-1-2.66s-7.27 4.09-16.41 5.05z" fill="#1c75bc"/><path d="m230.51 318.11a8.28 8.28 0 0 1 1.85-.22c.68.05 1.14.88 1.69 1.19a3.37 3.37 0 0 1 1.49 2.58c0 1.18-.53 2.48-1.18 2.48s-.8.13-1-.35a23.9 23.9 0 0 0 -1.35-2.17z" fill="#f7ca82"/><path d="m221.75 339a7.79 7.79 0 0 0 3.51-.72c1.12-.77 3.77 2.41 1.16 4.09s-5.29 3.37-6.7 3.13-2.16-.49-2.28-.81-.16-5.93-.16-5.93z" fill="#41404f"/><path d="m222.74 334.73v6.41s-3.62 1.59-6 .67l-.9-4.26z" fill="#363142"/><path d="m232 342.65a7.7 7.7 0 0 0 3.51-.73c1.12-.76 3.77 2.42 1.16 4.1s-5.29 3.36-6.7 3.12-2.16-.48-2.28-.8-.16-5.93-.16-5.93z" fill="#41404f"/><path d="m197.48 296.49a3.58 3.58 0 0 1 3.71-1l2.8.83 7.62 3.55 3.45 2 2.27 17.67.54 8.23-3.13 2.65c-3.73 3.49-15.17-2.65-15.17-2.65-1.92-6.38-4.75-24-4.75-24a11.11 11.11 0 0 1 2.66-7.28z" fill="#41404f"/><path d="m216.6 323.39s8.81-1.68 13.7-2.12a3.14 3.14 0 0 1 3.42 3 173.11 173.11 0 0 1 -1 19.61l-2.95 1.85a2.08 2.08 0 0 1 -3.17-1.73l-.55-10.89c0-.94-1.15.19-1.86.8-2.23 1.91-7.59 4.07-10.85 2.93 0 0-9.79-3-12.14-9.4z" fill="#363142"/><path d="m211.82 339 2.76-1.42-1.58 24.27a1.49 1.49 0 0 1 -.47 1 2.15 2.15 0 0 1 -1 .51c-.7.11-1.29-.63-1.23-1.5z" fill="#d1d3d4"/><path d="m191.89 328.76 2.69-1.42-1.79 22.38a1.57 1.57 0 0 1 -.48 1 2 2 0 0 1 -.8.46c-.75.22-1.44-.6-1.36-1.58z" fill="#d1d3d4"/><path d="m228.79 333.64 3.2 19.49a1.35 1.35 0 0 1 -.32 1.18 1.4 1.4 0 0 1 -.59.34c-.44.12-.86-.26-1-.83l-3.87-19.28z" fill="#d1d3d4"/><path d="m206.56 281.72c1.82-.3 2.85-.65 4.61-.13 3 .88 4.54 3.68 5.25 6.49s.94 7-.69 9.6c-1 1.64-3.27 1.33-4.88.9a18.83 18.83 0 0 1 -6.1-2.56c-2.23-1.69-3.4-5.37-3.54-8-.12-2.33 2.57-5.85 5.35-6.3z" fill="#f7ca82"/><path d="m204 295.32a6.24 6.24 0 0 0 .76.7 18.83 18.83 0 0 0 6.1 2.56 9.58 9.58 0 0 0 1 .22l-.23 1.06c-2.07.57-3.62-.3-5.09-.47-1.12-.13-2.21-.39-2.53-1.39v-2.68z" fill="#f7b378"/><path d="m192.93 304.72c11.51 2.39 17.35 8.53 19.19 10.84a3 3 0 0 1 .65 1.9v22.1c-15.4-2.57-22-11.64-22-11.64v-21.45a1.79 1.79 0 0 1 2.16-1.75z" fill="#1c75bc"/><path d="m212.77 339.56s13.28-1.33 17.37-5.92c0 0 .31-3.09-1-2.67s-7.26 4.09-16.41 5.06z" fill="#1c75bc"/><path d="m217.87 281.32a3.28 3.28 0 0 1 -4.74 0c-2.6-2.29-12.83-1.59-12.26 7.81l1.23 3a8.8 8.8 0 0 0 2.65 3.9 15.9 15.9 0 0 0 4.67 2.15c.46-.21 1.14-2.7 1.14-2.7-.93-.54-1.65-3.64-.66-4.18s1.65 1.38 1.65 1.38a1.48 1.48 0 0 0 1-2 3.35 3.35 0 0 1 0-2.34 8.47 8.47 0 0 0 3.77-.68 6 6 0 0 0 1.55-6.34z" fill="#414042"/><path d="m203.84 296.11s1.91 2.66 7.92 3.05l.93 1.27s-5.18-.16-7-.86c-1.64-.64-2.08-1.17-2.11-2.36z" fill="#e6e7e8"/><path d="m229.77 317.75 1.34-.28a10 10 0 0 1 1.16 4.28l-1.18.28z" fill="#e6e7e8"/><path d="m230.17 317.53c-1.38.36-9.07.92-9.07.92s-.93-9.77-2-12.84a6.17 6.17 0 0 0 -4-3.79c-5.11 2.47-2.45 8.85-2.45 8.85a75.33 75.33 0 0 1 3.36 12.5 2 2 0 0 0 2.28 1.61c6.81-1.1 13.23-2.66 13.23-2.66a8.65 8.65 0 0 0 -1.35-4.59z" fill="#585866"/><path d="m325.42 208c11.4 0 20.65 2.82 20.65 6.29s-9.25 6.28-20.65 6.28-20.64-2.81-20.64-6.28 9.22-6.29 20.64-6.29z" fill="#2b3990" opacity=".2"/><path d="m304.47 165.35a2.5 2.5 0 0 0 .17-.76c0-.29-.24-.1-.39.07-.4.48-.67 1-1.1 1.5-.12.14-.44.33-.46 0a5.2 5.2 0 0 1 .91-2.63 14.82 14.82 0 0 1 1-1.55c.19-.26.39-.52.6-.77s.45-.39.48-.58a2.28 2.28 0 0 0 0-.26l3.82.47a7.82 7.82 0 0 1 .14 1.62 5.45 5.45 0 0 1 -.73 3 4.59 4.59 0 0 0 -.29 2.09c0 .76.49 1.26.17 2s-2.43.9-3.67-.24a3.29 3.29 0 0 1 -.83-2.37 6.53 6.53 0 0 1 .1-1.32 2.23 2.23 0 0 1 .08-.27z" fill="#f7ca82"/><path d="m305.3 159.28-.27 1.44a10.27 10.27 0 0 0 5 .93l.39-1.68z" fill="#e6e7e8"/><path d="m309.51 126.18s-1.8 19.19-4.48 33.44a8.08 8.08 0 0 0 5.38 1l2.94-15.66z" fill="#ef4661"/><path d="m334.26 155.75a1.71 1.71 0 0 0 -1.08 1.11c-.39 1-1.7 2.59-2.14 2.33s0-4.3 0-4.3l.78-1.76z" fill="#f7b378"/></g><path d="m405.65 156.46-.79 1.03-3.5-3.64 1.01-1.15z" fill="#e6e7e8"/><path d="m337.72 206.25s.26 3.11 1.63 4.22c3.32 2.68 4.79 5.24 1.83 6.12s-9.13-2.48-9.72-4.75l.44-6.77z" fill="#363142" transform="translate(70.33 .84)"/><path d="m313.53 206.25s-.26 3.11-1.63 4.22c-3.33 2.68-4.8 5.24-1.84 6.12s9.14-2.48 9.73-4.75l-.44-6.77z" fill="#363142" transform="translate(70.33 .84)"/><path d="m311.06 155.2v53.71s5.18 2 9.47-.66c0 0-.22-25.64.66-39 0 0 .66-.88 1.16.72 0 0 6.29 26.24 7.9 38.71 0 0 5 1.18 9-1.17 0 0-4-22.9-4.41-25.83s-3.8-25.2-3.8-25.2-14.04-3.18-19.98-1.28z" fill="#a55932" transform="translate(70.33 .84)"/><path d="m329 116.18-1.57.41-.18 2.53c2.03.13 1.75-2.94 1.75-2.94z" fill="#f7b378" transform="translate(70.33 .84)"/><path d="m315.06 116.18 1.57.41.18 2.53c-2.03.13-1.75-2.94-1.75-2.94z" fill="#f7b378" transform="translate(70.33 .84)"/><path d="m317.3 122.14s3.21-1.06 9.33-.1l-.51 1.49-6.88 1.38-1.67-1.72z" fill="#bcbec0" transform="translate(70.33 .84)"/><path d="m326.5 123s8 1.69 8.82 2.57-1.18 12.84-2.06 15.41-2.26 15.54-2.26 15.54-9 3.86-19.94-1.32c0 0-.51-9.31-1-14.2-.41-4.3-.58-14.82-.58-14.82a17 17 0 0 1 7.83-2.86 54.19 54.19 0 0 1 9.19-.32z" fill="#ef5f61" transform="translate(70.33 .84)"/><path d="m335.32 125.58s8.34 12.76 10.76 19.14l-10.77 11.36-3.67-4.08 7.18-7.27-4.09-7.21-5.28-7.21z" fill="#ef5f61" transform="translate(70.33 .84)"/><path d="m326.31 117-.34 6.32s-3 2.92-8.08 0v-6.76z" fill="#f7b378" transform="translate(70.33 .84)"/><path d="m328 114.55c0 4.62-2.7 8.36-6 8.36s-6-3.74-6-8.36 2.7-8.36 6-8.36 6 3.74 6 8.36z" fill="#f7ca82" transform="translate(70.33 .84)"/><path d="m321.73 112.24s4.65-2.28 4.86 4.75a3.39 3.39 0 0 0 2.79-.47s2.26-12.26-7.59-11.11c0 0-8.44-.76-7.18 11.32a4 4 0 0 0 3.11.15s-.59-5.51 4.01-4.64z" fill="#b64d50" transform="translate(70.33 .84)"/><path d="m388.33 124.31 4.01 3.15 3.16-2.3-.42-.76z" fill="#f7b378"/><path d="m396.96 122.88-4.62 4.58 3.48 2.19 1.68-5.65z" fill="#f1f2f2"/><path d="m387.63 122.98 4.71 4.48-3.47 2.19-2.08-5.41z" fill="#f1f2f2"/><path d="m310.77 149.13c0 .37 0 .73.05 1.08a42.14 42.14 0 0 0 20.71.95c0-.37.07-.74.11-1.13-11.34 1.97-18.06.2-20.87-.9z" fill="#f1f2f2" transform="translate(70.33 .84)"/><path d="m310.93 152.25c0 .38 0 .74.05 1.07a42.33 42.33 0 0 0 20.23 1c0-.35.07-.73.11-1.14-10.93 1.82-17.52.16-20.39-.93z" fill="#f1f2f2" transform="translate(70.33 .84)"/><path d="m331.64 153.16a2.14 2.14 0 0 1 .32 1.19c-.32 1.86.19 2 .28 3a2.69 2.69 0 0 1 -.45 1.72c-.2.34-.59.93-1.05.88a2.35 2.35 0 0 1 -1.56-2.65 3.51 3.51 0 0 0 .35-2.11c-.13-.75.16-1 .77-1.42.11-.07 1.23-.77 1.34-.61z" fill="#f7ca82" transform="translate(70.33 .84)"/><path d="m240.09 144.44 6.38-3.69v32.18l-6.38 3.69z" fill="#e6e7e8"/><path d="m249.16 139.23 6.38-3.69v32.19l-6.38 3.68z" fill="#e6e7e8"/><path d="m258.23 134.02 6.38-3.68v32.18l-6.38 3.69z" fill="#e6e7e8"/><path d="m267.3 128.82 6.38-3.69v32.18l-6.38 3.69z" fill="#e6e7e8"/><path d="m316.51 87.8v2.01l-18.03 10.43v-2.01z" fill="#e6e7e8"/><path d="m316.51 93.67-18.03 10.43v-2.01l18.03-10.43z" fill="#e6e7e8"/><path d="m316.51 97.52-18.03 10.43v-2.01l18.03-10.43z" fill="#e6e7e8"/><path d="m316.51 101.38-18.03 10.43v-2.01l18.03-10.43z" fill="#e6e7e8"/><path d="m316.51 107.95v2.01l-18.03 10.43v-2.01z" fill="#e6e7e8"/><path d="m316.51 113.82-18.03 10.43v-2.01l18.03-10.43z" fill="#e6e7e8"/><path d="m316.51 117.67-18.03 10.43v-2.01l18.03-10.43z" fill="#e6e7e8"/><path d="m316.51 121.53-18.03 10.43v-2.01l18.03-10.43z" fill="#e6e7e8"/><path d="m148.09 214.52v2.01l-18.03 10.43v-2.01z" fill="#e6e7e8"/><path d="m148.09 220.38-18.03 10.43v-2l18.03-10.44z" fill="#e6e7e8"/><path d="m148.09 224.24-18.03 10.43v-2.01l18.03-10.43z" fill="#e6e7e8"/><path d="m148.09 228.09-18.03 10.44v-2.01l18.03-10.43z" fill="#e6e7e8"/><path d="m148.09 232.97v2l-18.03 10.44v-2.01z" fill="#e6e7e8"/><path d="m148.09 238.83-18.03 10.43v-2.01l18.03-10.43z" fill="#e6e7e8"/><path d="m148.09 242.69-18.03 10.43v-2.01l18.03-10.43z" fill="#e6e7e8"/><path d="m148.09 246.54-18.03 10.43v-2.01l18.03-10.43z" fill="#e6e7e8"/><path d="m128.4 266.89v3.63l79.41-45.95v-3.62z" fill="#e6e7e8"/><path d="m121.5 194.29c-6.08 3.51-11 12-11 19s5 9.81 11 6.3 11-12 11-19-4.92-9.81-11-6.3z" fill="#e6e7e8" transform="translate(70.33 .84)"/><path d="m421.25 103.98 85.11 104.29v-55.05z" fill="#ec983b"/></svg>