<svg viewBox="0 0 500 500" xmlns="http://www.w3.org/2000/svg"><path d="m0 0h500v457.98h-500z" fill="#a9b4ed"/><path d="m0 457.98h500v42.02h-500z" fill="#828fc4"/><path d="m0 338.42h500v99.55h-500z" fill="#a5876f"/><path d="m0 437.97h500v20.01h-500z" fill="#997761"/><ellipse cx="247.2" cy="354.98" fill="#997761" rx="132.25" ry="6.18"/><ellipse cx="433.52" cy="399.91" fill="#997761" rx="20.84" ry="35.98" transform="matrix(.14884502 -.98886054 .98886054 .14884502 -26.44 769.09)"/><path d="m137.75 368.54-24.75 42.46a5.11 5.11 0 0 0 4.42 7.69h245.87a5.11 5.11 0 0 0 3.91-8.41l-35.13-41.69z" fill="#997761"/><ellipse cx="62.69" cy="415.8" fill="#997761" rx="33.02" ry="8.53"/><path d="m454.16 337h-.16a1.49 1.49 0 0 1 -1.36-1.62c.1-1.15.19-2.31.27-3.47a1.51 1.51 0 0 1 1.6-1.38 1.49 1.49 0 0 1 1.39 1.6c-.08 1.17-.17 2.34-.28 3.51a1.5 1.5 0 0 1 -1.46 1.36z" fill="#f2f2f2"/><path d="m454.83 326.58h-.06a1.49 1.49 0 0 1 -1.44-1.56c.09-2.3.15-4.62.16-6.88a1.5 1.5 0 0 1 1.5-1.49 1.49 1.49 0 0 1 1.49 1.51c0 2.3-.07 4.65-.16 7a1.51 1.51 0 0 1 -1.49 1.42zm-413-.19a1.51 1.51 0 0 1 -1.5-1.44c-.09-2.33-.14-4.68-.16-7a1.5 1.5 0 0 1 1.49-1.51 1.49 1.49 0 0 1 1.5 1.49c0 2.26.07 4.58.16 6.88a1.5 1.5 0 0 1 -1.44 1.56zm413.1-13.68a1.51 1.51 0 0 1 -1.5-1.46c-.05-2.29-.14-4.61-.27-6.88a1.5 1.5 0 1 1 3-.17c.13 2.3.23 4.65.28 7a1.5 1.5 0 0 1 -1.46 1.54zm-413.19-.19a1.5 1.5 0 0 1 -1.5-1.52c0-2.32.15-4.66.28-7a1.5 1.5 0 0 1 3 .18c-.13 2.28-.23 4.59-.28 6.88a1.51 1.51 0 0 1 -1.5 1.46zm412.41-13.65a1.51 1.51 0 0 1 -1.49-1.37c-.2-2.29-.44-4.59-.71-6.85a1.5 1.5 0 1 1 3-.36c.28 2.29.53 4.63.73 6.94a1.5 1.5 0 0 1 -1.36 1.63zm-411.62-.2h-.14a1.51 1.51 0 0 1 -1.39-1.67c.21-2.31.45-4.65.74-7a1.5 1.5 0 1 1 3 .37c-.27 2.26-.52 4.57-.72 6.85a1.49 1.49 0 0 1 -1.49 1.45zm410-13.58a1.49 1.49 0 0 1 -1.48-1.27c-.35-2.25-.74-4.54-1.16-6.79a1.5 1.5 0 0 1 2.95-.55c.43 2.28.82 4.6 1.17 6.89a1.49 1.49 0 0 1 -1.25 1.71zm-408.28-.18h-.24a1.51 1.51 0 0 1 -1.25-1.71c.36-2.3.75-4.62 1.18-6.89a1.5 1.5 0 0 1 3 .56c-.42 2.24-.81 4.52-1.16 6.78a1.51 1.51 0 0 1 -1.57 1.26zm405.73-13.45a1.49 1.49 0 0 1 -1.46-1.17c-.49-2.22-1-4.48-1.6-6.7a1.5 1.5 0 0 1 2.91-.75c.58 2.26 1.12 4.55 1.62 6.8a1.51 1.51 0 0 1 -1.15 1.79 1.66 1.66 0 0 1 -.36.03zm-403.17-.19h-.33a1.5 1.5 0 0 1 -1.14-1.79c.51-2.28 1.06-4.56 1.63-6.79a1.5 1.5 0 1 1 2.9.74c-.56 2.2-1.1 4.45-1.6 6.7a1.49 1.49 0 0 1 -1.5 1.14zm399.7-13.27a1.49 1.49 0 0 1 -1.44-1.08c-.64-2.19-1.32-4.41-2-6.58a1.5 1.5 0 1 1 2.85-.93c.72 2.2 1.41 4.45 2.06 6.67a1.5 1.5 0 0 1 -1 1.86 1.52 1.52 0 0 1 -.47.06zm-396.3-.18a1.5 1.5 0 0 1 -1.44-1.92c.65-2.23 1.34-4.47 2.07-6.68a1.5 1.5 0 0 1 2.85.94c-.71 2.17-1.4 4.39-2 6.58a1.51 1.51 0 0 1 -1.48 1.1zm392-13a1.52 1.52 0 0 1 -1.42-1c-.78-2.16-1.61-4.33-2.46-6.46a1.5 1.5 0 0 1 2.79-1.11c.86 2.16 1.7 4.36 2.5 6.54a1.5 1.5 0 0 1 -1.41 2zm-387.68-.18a1.37 1.37 0 0 1 -.52-.1 1.49 1.49 0 0 1 -.89-1.92c.79-2.18 1.63-4.38 2.49-6.52a1.5 1.5 0 1 1 2.79 1.12c-.85 2.11-1.68 4.28-2.46 6.43a1.51 1.51 0 0 1 -1.41 1.01zm382.47-12.72a1.5 1.5 0 0 1 -1.37-.9c-.92-2.1-1.89-4.21-2.88-6.27a1.5 1.5 0 0 1 2.71-1.3c1 2.09 2 4.23 2.92 6.37a1.5 1.5 0 0 1 -.77 2 1.46 1.46 0 0 1 -.61.1zm-377.34-.14a1.61 1.61 0 0 1 -.6-.12 1.51 1.51 0 0 1 -.77-2c.93-2.12 1.91-4.24 2.91-6.33a1.5 1.5 0 0 1 2.7 1.3c-1 2-2 4.15-2.86 6.24a1.51 1.51 0 0 1 -1.35.91zm371.34-12.4a1.5 1.5 0 0 1 -1.33-.81c-1.06-2-2.17-4.08-3.29-6.07a1.5 1.5 0 0 1 2.62-1.5c1.13 2 2.25 4.09 3.33 6.16a1.5 1.5 0 0 1 -.64 2 1.56 1.56 0 0 1 -.69.22zm-365.36-.07a1.44 1.44 0 0 1 -.69-.17 1.5 1.5 0 0 1 -.64-2c1.07-2 2.18-4.11 3.32-6.13a1.5 1.5 0 1 1 2.61 1.47c-1.12 2-2.22 4-3.27 6a1.49 1.49 0 0 1 -1.3.83zm358.55-12.05a1.51 1.51 0 0 1 -1.29-.72c-1.18-2-2.42-3.92-3.67-5.84a1.5 1.5 0 1 1 2.51-1.64c1.26 1.94 2.56 3.94 3.76 5.94a1.5 1.5 0 0 1 -.5 2 1.46 1.46 0 0 1 -.78.26zm-351.76 0a1.55 1.55 0 0 1 -.78-.21 1.5 1.5 0 0 1 -.51-2.06c1.2-2 2.45-4 3.72-5.91a1.5 1.5 0 0 1 2.51 1.64c-1.25 1.91-2.48 3.87-3.66 5.82a1.49 1.49 0 0 1 -1.25.71zm7.57-11.6a1.5 1.5 0 0 1 -1.23-2.36c1.33-1.9 2.7-3.8 4.09-5.65a1.5 1.5 0 0 1 2.4 1.8c-1.37 1.82-2.72 3.7-4 5.57a1.52 1.52 0 0 1 -1.26.64zm336.61 0a1.48 1.48 0 0 1 -1.23-.64c-1.31-1.86-2.67-3.73-4-5.58a1.5 1.5 0 1 1 2.4-1.8c1.4 1.87 2.78 3.78 4.1 5.66a1.5 1.5 0 0 1 -.36 2.09 1.48 1.48 0 0 1 -.89.23zm-328.3-11a1.5 1.5 0 0 1 -1.17-2.44c1.45-1.81 3-3.62 4.45-5.37a1.5 1.5 0 1 1 2.28 1.95c-1.48 1.73-3 3.51-4.39 5.29a1.51 1.51 0 0 1 -1.15.49zm320-.07a1.5 1.5 0 0 1 -1.17-.56c-1.43-1.78-2.91-3.56-4.4-5.3a1.5 1.5 0 0 1 2.28-2c1.51 1.77 3 3.58 4.46 5.38a1.5 1.5 0 0 1 -.23 2.11 1.46 1.46 0 0 1 -.96.29zm-310.96-10.53a1.5 1.5 0 0 1 -1.11-2.51c1.56-1.71 3.18-3.42 4.8-5.07a1.5 1.5 0 0 1 2.14 2.1c-1.59 1.63-3.19 3.31-4.73 5a1.46 1.46 0 0 1 -1.1.48zm301.9-.08a1.48 1.48 0 0 1 -1.11-.49c-1.55-1.69-3.14-3.37-4.74-5a1.5 1.5 0 0 1 2.14-2.1c1.62 1.65 3.24 3.36 4.81 5.08a1.49 1.49 0 0 1 -1.1 2.51zm-292.25-9.83a1.48 1.48 0 0 1 -1.08-.46 1.5 1.5 0 0 1 .05-2.12c1.67-1.6 3.39-3.19 5.12-4.74a1.5 1.5 0 1 1 2 2.23c-1.7 1.53-3.4 3.1-5 4.68a1.47 1.47 0 0 1 -1.09.41zm282.49-.08a1.48 1.48 0 0 1 -1-.42c-1.65-1.57-3.36-3.15-5.06-4.67a1.5 1.5 0 0 1 2-2.24c1.73 1.55 3.45 3.14 5.13 4.74a1.5 1.5 0 0 1 -1 2.59zm-272.15-9.16a1.47 1.47 0 0 1 -1.15-.54 1.49 1.49 0 0 1 .18-2.11c1.78-1.49 3.61-3 5.44-4.39a1.5 1.5 0 1 1 1.84 2.36c-1.79 1.4-3.6 2.86-5.35 4.33a1.51 1.51 0 0 1 -.92.35zm261.81-.09a1.5 1.5 0 0 1 -1-.34c-1.75-1.46-3.55-2.92-5.36-4.33a1.5 1.5 0 0 1 1.85-2.37c1.83 1.44 3.66 2.91 5.43 4.39a1.5 1.5 0 0 1 -1 2.65zm-250.88-8.45a1.52 1.52 0 0 1 -1.22-.62 1.5 1.5 0 0 1 .33-2.09c1.88-1.37 3.8-2.73 5.72-4a1.51 1.51 0 0 1 2.08.4 1.49 1.49 0 0 1 -.4 2.08c-1.88 1.29-3.78 2.62-5.63 4a1.54 1.54 0 0 1 -.84.23zm240-.08a1.43 1.43 0 0 1 -.88-.29c-1.85-1.34-3.75-2.67-5.63-3.95a1.5 1.5 0 0 1 1.68-2.49c1.91 1.3 3.83 2.65 5.71 4a1.5 1.5 0 0 1 -.88 2.71zm-228.47-7.72a1.5 1.5 0 0 1 -.8-2.77c2-1.23 4-2.46 6-3.63a1.5 1.5 0 0 1 1.52 2.59c-2 1.16-4 2.36-5.89 3.58a1.48 1.48 0 0 1 -.84.23zm217-.06a1.46 1.46 0 0 1 -.8-.23c-1.92-1.21-3.9-2.41-5.88-3.57a1.49 1.49 0 0 1 -.54-2.05 1.51 1.51 0 0 1 2.05-.54c2 1.18 4 2.4 6 3.63a1.49 1.49 0 0 1 -.8 2.76zm-205-6.95a1.5 1.5 0 0 1 -1.32-.78 1.51 1.51 0 0 1 .61-2c2-1.1 4.13-2.19 6.21-3.22a1.51 1.51 0 0 1 2 .68 1.49 1.49 0 0 1 -.68 2c-2 1-4.1 2.08-6.12 3.17a1.39 1.39 0 0 1 -.73.15zm193.06 0a1.5 1.5 0 0 1 -.71-.18c-2-1.08-4.05-2.14-6.11-3.16a1.5 1.5 0 0 1 1.34-2.69c2.08 1 4.16 2.11 6.19 3.21a1.5 1.5 0 0 1 -.71 2.82zm-180.62-6.15a1.5 1.5 0 0 1 -.62-2.86c2.12-1 4.28-1.91 6.42-2.8a1.5 1.5 0 0 1 1.15 2.78c-2.11.87-4.24 1.8-6.33 2.75a1.5 1.5 0 0 1 -.65.1zm168.22 0a1.5 1.5 0 0 1 -.62-.13c-2.07-.95-4.19-1.87-6.3-2.74a1.5 1.5 0 0 1 1.15-2.77c2.14.88 4.29 1.82 6.39 2.77a1.5 1.5 0 0 1 -.62 2.87zm-12.78-5.3a1.58 1.58 0 0 1 -.52-.09c-2.13-.8-4.31-1.58-6.49-2.31a1.5 1.5 0 0 1 1-2.84c2.21.74 4.42 1.53 6.58 2.34a1.5 1.5 0 0 1 -.53 2.9zm-142.6 0a1.49 1.49 0 0 1 -1.4-1 1.5 1.5 0 0 1 .87-1.94c2.17-.81 4.39-1.6 6.6-2.34a1.5 1.5 0 1 1 1 2.84c-2.18.73-4.36 1.51-6.5 2.31a1.42 1.42 0 0 1 -.6.08zm129.46-4.41a1.59 1.59 0 0 1 -.43-.06c-2.19-.66-4.42-1.28-6.63-1.86a1.5 1.5 0 1 1 .76-2.9c2.24.58 4.51 1.22 6.73 1.88a1.5 1.5 0 0 1 -.43 2.94zm-116.28 0a1.5 1.5 0 0 1 -.43-2.94c2.23-.66 4.49-1.3 6.73-1.88a1.5 1.5 0 1 1 .76 2.9c-2.21.58-4.44 1.2-6.63 1.85a1.25 1.25 0 0 1 -.46 0zm102.86-3.49a1.24 1.24 0 0 1 -.33 0c-2.22-.5-4.49-1-6.74-1.4a1.5 1.5 0 1 1 .56-2.94c2.28.43 4.59.91 6.84 1.41a1.5 1.5 0 0 1 -.33 3zm-89.44 0a1.5 1.5 0 0 1 -.33-3c2.27-.51 4.57-1 6.85-1.42a1.5 1.5 0 1 1 .55 3c-2.24.42-4.51.89-6.74 1.39a1.24 1.24 0 0 1 -.36-.06zm75.82-2.56h-.23c-2.26-.35-4.56-.66-6.82-.93a1.5 1.5 0 1 1 .35-3c2.3.27 4.63.59 6.92.94a1.5 1.5 0 0 1 -.22 3zm-62.19 0a1.5 1.5 0 0 1 -.23-3c2.3-.35 4.63-.67 6.93-.94a1.5 1.5 0 0 1 .35 3c-2.27.27-4.56.58-6.82.93zm48.42-1.63h-.13c-2.28-.2-4.59-.35-6.87-.47a1.5 1.5 0 0 1 .15-3c2.31.11 4.66.27 7 .47a1.5 1.5 0 0 1 -.12 3zm-34.65 0a1.5 1.5 0 0 1 -.12-3c2.31-.19 4.65-.35 7-.47a1.5 1.5 0 0 1 .15 3c-2.28.11-4.59.27-6.87.46zm20.79-.7c-2.29 0-4.6 0-6.89 0a1.5 1.5 0 1 1 -.05-3q3.5-.06 7 0a1.5 1.5 0 0 1 0 3z" fill="#f2f2f2"/><path d="m42.51 337a1.51 1.51 0 0 1 -1.5-1.37c-.1-1.17-.19-2.34-.28-3.51a1.5 1.5 0 0 1 3-.22c.08 1.16.17 2.32.27 3.47a1.5 1.5 0 0 1 -1.36 1.63z" fill="#f2f2f2"/><path d="m358.65 403.54h-237.39l14-32.93a10 10 0 0 1 9.22-6.09h180.52a10 10 0 0 1 8.08 4.1z" fill="#ccc"/><path d="m121.26 403.54h237.39a0 0 0 0 1 0 0v5.14a2.32 2.32 0 0 1 -2.32 2.32h-232.75a2.32 2.32 0 0 1 -2.32-2.32v-5.14a0 0 0 0 1 0 0z" fill="#b6b6b7"/><g fill="#999"><path d="m162.19 374.09h8.54c.46 0 .79.18.73.39l-1.11 4.12c-.06.23-.5.41-1 .41h-8.75c-.47 0-.79-.18-.72-.41l1.35-4.12c.07-.21.5-.39.96-.39z"/><path d="m174.67 374.09h8.54c.46 0 .8.18.75.39l-.81 4.12c-.05.23-.47.41-.94.41h-8.78c-.47 0-.81-.18-.75-.41l1-4.12c.11-.21.53-.39.99-.39z"/><path d="m187.17 374.09h8.53c.46 0 .82.18.79.39l-.49 4.12c0 .23-.44.41-.92.41h-8.77c-.48 0-.83-.18-.79-.41l.77-4.12c.01-.21.41-.39.88-.39z"/><path d="m199.65 374.09h8.53c.46 0 .83.18.82.39l-.24 4.12c0 .23-.4.41-.88.41h-8.77c-.48 0-.84-.18-.82-.41l.47-4.12c.03-.21.42-.39.89-.39z"/><path d="m212.14 374.09h8.54c.46 0 .84.18.84.39l.06 4.12c0 .23-.38.41-.85.41h-8.73c-.47 0-.85-.18-.84-.41l.18-4.12c-.04-.21.34-.39.8-.39z"/><path d="m224.62 374.09h8.54c.46 0 .85.18.87.39l.35 4.12c0 .23-.35.41-.83.41h-8.77c-.47 0-.86-.18-.87-.41l-.11-4.12c-.01-.21.36-.39.82-.39z"/><path d="m237.12 374.09h8.53c.47 0 .87.18.9.39l.65 4.12c0 .23-.32.41-.8.41h-8.77c-.48 0-.88-.18-.9-.41l-.41-4.12c-.02-.21.34-.39.8-.39z"/><path d="m249.6 374.09h8.53c.46 0 .88.18.93.39l.93 4.12c.06.23-.29.41-.76.41h-8.78c-.47 0-.89-.18-.93-.41l-.69-4.12c-.04-.21.3-.39.77-.39z"/><path d="m262.09 374.09h8.54c.46 0 .89.18.95.39l1.23 4.12c.07.23-.26.41-.74.41h-8.77c-.48 0-.9-.18-1-.41l-1-4.12c0-.21.33-.39.79-.39z"/><path d="m274.57 374.09h8.54c.46 0 .9.18 1 .39l1.52 4.12c.08.23-.23.41-.71.41h-8.77c-.48 0-.92-.18-1-.41l-1.28-4.12c-.08-.21.24-.39.7-.39z"/><path d="m164.11 380h8.82c.48 0 .82.19.76.42l-1.09 4.41c-.06.24-.51.44-1 .44h-9.08c-.49 0-.82-.2-.75-.44l1.35-4.41c.07-.22.51-.42.99-.42z"/><path d="m177 380h8.82c.48 0 .83.19.79.42l-.78 4.41c0 .24-.48.44-1 .44h-9.08c-.49 0-.84-.2-.78-.44l1-4.41c.15-.22.58-.42 1.03-.42z"/><path d="m189.93 380h8.82c.48 0 .84.19.82.42l-.47 4.41c0 .24-.44.44-.93.44h-9.08c-.49 0-.86-.2-.82-.44l.72-4.41c.01-.22.46-.42.94-.42z"/><path d="m202.84 380h8.83c.47 0 .85.19.85.42l-.16 4.41c0 .24-.41.44-.9.44h-9.08c-.49 0-.87-.2-.85-.44l.41-4.41c.06-.22.43-.42.9-.42z"/><path d="m215.74 380h8.83c.47 0 .87.19.88.42l.15 4.41c0 .24-.38.44-.87.44h-9.08c-.49 0-.89-.2-.88-.44l.1-4.41c0-.22.4-.42.87-.42z"/><path d="m228.66 380h8.82c.48 0 .89.19.91.42l.47 4.41c0 .24-.35.44-.84.44h-9.08c-.49 0-.9-.2-.91-.44l-.21-4.41c-.02-.22.36-.42.84-.42z"/><path d="m241.56 380h8.82c.48 0 .9.19.94.42l.78 4.41c.05.24-.32.44-.81.44h-9.08c-.49 0-.91-.2-.94-.44l-.53-4.41c-.02-.22.34-.42.82-.42z"/><path d="m254.48 380h8.82c.48 0 .91.19 1 .42l1.09 4.41c.06.24-.29.44-.78.44h-9.11c-.49 0-.92-.2-1-.44l-.84-4.41c-.01-.22.34-.42.82-.42z"/><path d="m267.38 380h8.82c.48 0 .92.19 1 .42l1.4 4.41c.08.24-.25.44-.75.44h-9.07c-.5 0-.95-.2-1-.44l-1.15-4.41c-.07-.22.27-.42.75-.42z"/><path d="m165.8 386.41h9.13c.5 0 .85.2.8.45l-1.09 4.72c-.06.26-.52.47-1 .47h-9.4c-.51 0-.86-.21-.79-.47l1.36-4.72c.04-.25.5-.45.99-.45z"/><path d="m179.17 386.41h9.13c.5 0 .87.2.83.45l-.75 4.72c0 .26-.49.47-1 .47h-9.38c-.51 0-.88-.21-.82-.47l1-4.72c.05-.25.5-.45.99-.45z"/><path d="m192.52 386.41h9.14c.49 0 .87.2.85.45l-.41 4.72c0 .26-.45.47-1 .47h-9.41c-.51 0-.89-.21-.85-.47l.68-4.72c.08-.25.48-.45 1-.45z"/><path d="m205.89 386.41h9.11c.49 0 .89.2.89.45l-.08 4.72c0 .26-.42.47-.93.47h-9.38c-.51 0-.9-.21-.88-.47l.35-4.72c.03-.25.43-.45.92-.45z"/><path d="m219.25 386.41h9.13c.49 0 .91.2.92.45l.26 4.72c0 .26-.39.47-.9.47h-9.4c-.51 0-.93-.21-.92-.47v-4.72c.01-.25.41-.45.91-.45z"/><path d="m232.62 386.41h9.13c.5 0 .92.2.95.45l.6 4.72c0 .26-.36.47-.87.47h-9.43c-.51 0-.94-.21-1-.47l-.32-4.72c.06-.25.44-.45.94-.45z"/><path d="m246 386.41h9.13c.5 0 .94.2 1 .45l.93 4.72c.05.26-.32.47-.83.47h-9.41c-.51 0-.95-.21-1-.47l-.65-4.72c-.07-.25.31-.45.83-.45z"/><path d="m280.29 380h8.82c.48 0 .94.19 1 .42l1.72 4.41c.1.24-.22.44-.71.44h-9.08c-.49 0-1-.2-1-.44l-1.46-4.41c-.09-.22.23-.42.71-.42z"/><path d="m293.19 380h8.81c.48 0 1 .19 1.06.42l2 4.41c.12.24-.19.44-.68.44h-9.08a1.24 1.24 0 0 1 -1.07-.44l-1.77-4.41c-.06-.22.25-.42.73-.42z"/><path d="m287.07 374.09h8.53c.47 0 .92.18 1 .39l1.82 4.12c.1.23-.21.41-.68.41h-8.74c-.47 0-.93-.18-1-.41l-1.58-4.12c-.12-.21.19-.39.65-.39z"/><path d="m299.57 374.09h8.53a1.31 1.31 0 0 1 1 .39l2.1 4.12c.12.23-.17.41-.65.41h-8.77a1.25 1.25 0 0 1 -1.05-.41l-1.86-4.12c-.06-.21.23-.39.7-.39z"/><path d="m259.34 386.41h9.13c.5 0 .95.2 1 .45l1.26 4.72c.07.26-.28.47-.79.47h-9.41c-.51 0-1-.21-1-.47l-1-4.72c-.04-.25.32-.45.81-.45z"/><path d="m272.69 386.41h9.14c.49 0 1 .2 1 .45l1.6 4.72c.09.26-.25.47-.76.47h-9.37c-.5 0-1-.21-1.05-.47l-1.33-4.72c-.06-.25.28-.45.77-.45z"/><path d="m286.06 386.41h9.14a1.25 1.25 0 0 1 1.08.45l1.93 4.72c.11.26-.22.47-.73.47h-9.4c-.51 0-1-.21-1.09-.47l-1.66-4.72c-.09-.25.24-.45.73-.45z"/><path d="m312.06 374.09h13.18a1.46 1.46 0 0 1 1.08.39l2.5 4.11c.13.23-.14.41-.61.41h-13.55a1.34 1.34 0 0 1 -1.08-.41l-2.15-4.11c-.11-.21.17-.39.63-.39z"/><path d="m306.11 380h22.71a1.46 1.46 0 0 1 1.12.42l2.67 4.4c.15.24-.13.44-.62.44h-23.36a1.32 1.32 0 0 1 -1.1-.44l-2.09-4.4c-.11-.22.19-.42.67-.42z"/><path d="m299.44 386.41h33.24a1.52 1.52 0 0 1 1.17.45l2.87 4.71c.15.26-.13.47-.64.47h-34.24a1.3 1.3 0 0 1 -1.12-.47l-2-4.71c-.09-.25.22-.45.72-.45z"/><path d="m145 374.09h13.18c.46 0 .78.18.71.39l-1.4 4.11c-.08.23-.53.41-1 .41h-13.49c-.47 0-.78-.18-.68-.41l1.74-4.11c.06-.21.51-.39.94-.39z"/><path d="m142.55 380h17.45c.47 0 .8.19.73.42l-1.4 4.4c-.08.24-.55.44-1 .44h-18c-.49 0-.8-.2-.7-.44l1.86-4.4a1.23 1.23 0 0 1 1.06-.42z"/><path d="m139.86 386.41h21.7c.5 0 .84.2.76.45l-1.41 4.71c-.08.26-.56.47-1.06.47h-22.35c-.51 0-.84-.21-.72-.47l2-4.71c.1-.25.59-.45 1.08-.45z"/><path d="m137 393.18h14.61c.51 0 .85.21.76.48l-1.72 5.06c-.1.28-.6.51-1.13.51h-15.04c-.53 0-.86-.23-.74-.51l2.15-5.06c.11-.27.62-.48 1.11-.48z"/><path d="m156 393.18h9.46c.51 0 .87.21.8.48l-1.37 5.07c-.08.28-.56.51-1.09.51h-9.76c-.53 0-.88-.23-.79-.51l1.66-5.07c.09-.27.61-.48 1.09-.48z"/><path d="m169.89 393.18h14.61c.51 0 .89.21.84.48l-.87 5.06c-.05.28-.52.51-1 .51h-15.1c-.53 0-.9-.23-.83-.51l1.3-5.06c.07-.27.54-.48 1.05-.48z"/><path d="m327.31 393.18h9.46a1.56 1.56 0 0 1 1.22.48l3.09 5.07c.17.28-.12.51-.65.51h-9.75a1.54 1.54 0 0 1 -1.24-.51l-2.79-5.07c-.15-.27.14-.48.66-.48z"/><path d="m188.91 393.18h88.27c.51 0 1 .21 1.07.48l1.54 5.06c.08.28-.28.51-.8.51h-90.99c-.52 0-.92-.23-.87-.51l.8-5.06c.01-.27.47-.48.98-.48z"/><path d="m308.31 393.18h14.61a1.44 1.44 0 0 1 1.18.48l2.72 5.06c.16.28-.15.51-.68.51h-15.06a1.4 1.4 0 0 1 -1.19-.51l-2.29-5.06c-.12-.27.2-.48.71-.48z"/><path d="m294.46 393.18h9.46a1.32 1.32 0 0 1 1.14.48l2.23 5.07c.13.28-.2.51-.73.51h-9.76a1.3 1.3 0 0 1 -1.15-.51l-1.94-5.07c-.1-.27.23-.48.75-.48z"/><path d="m280.61 393.18h9.46c.51 0 1 .21 1.1.48l1.88 5.07c.1.28-.24.51-.77.51h-9.76c-.53 0-1-.23-1.11-.51l-1.58-5.07c-.08-.27.26-.48.78-.48z"/><path d="m162.19 374.09h8.54c.46 0 .79.18.73.39l-1.11 4.12c-.06.23-.5.41-1 .41h-8.75c-.47 0-.79-.18-.72-.41l1.35-4.12c.07-.21.5-.39.96-.39z"/><path d="m174.67 374.09h8.54c.46 0 .8.18.75.39l-.81 4.12c-.05.23-.47.41-.94.41h-8.78c-.47 0-.81-.18-.75-.41l1-4.12c.11-.21.53-.39.99-.39z"/><path d="m187.17 374.09h8.53c.46 0 .82.18.79.39l-.49 4.12c0 .23-.44.41-.92.41h-8.77c-.48 0-.83-.18-.79-.41l.77-4.12c.01-.21.41-.39.88-.39z"/><path d="m199.65 374.09h8.53c.46 0 .83.18.82.39l-.24 4.12c0 .23-.4.41-.88.41h-8.77c-.48 0-.84-.18-.82-.41l.47-4.12c.03-.21.42-.39.89-.39z"/><path d="m212.14 374.09h8.54c.46 0 .84.18.84.39l.06 4.12c0 .23-.38.41-.85.41h-8.73c-.47 0-.85-.18-.84-.41l.18-4.12c-.04-.21.34-.39.8-.39z"/><path d="m224.62 374.09h8.54c.46 0 .85.18.87.39l.35 4.12c0 .23-.35.41-.83.41h-8.77c-.47 0-.86-.18-.87-.41l-.11-4.12c-.01-.21.36-.39.82-.39z"/><path d="m237.12 374.09h8.53c.47 0 .87.18.9.39l.65 4.12c0 .23-.32.41-.8.41h-8.77c-.48 0-.88-.18-.9-.41l-.41-4.12c-.02-.21.34-.39.8-.39z"/><path d="m249.6 374.09h8.53c.46 0 .88.18.93.39l.93 4.12c.06.23-.29.41-.76.41h-8.78c-.47 0-.89-.18-.93-.41l-.69-4.12c-.04-.21.3-.39.77-.39z"/><path d="m262.09 374.09h8.54c.46 0 .89.18.95.39l1.23 4.12c.07.23-.26.41-.74.41h-8.77c-.48 0-.9-.18-1-.41l-1-4.12c0-.21.33-.39.79-.39z"/><path d="m274.57 374.09h8.54c.46 0 .9.18 1 .39l1.52 4.12c.08.23-.23.41-.71.41h-8.77c-.48 0-.92-.18-1-.41l-1.28-4.12c-.08-.21.24-.39.7-.39z"/><path d="m287.07 374.09h8.53c.47 0 .92.18 1 .39l1.82 4.12c.1.23-.21.41-.68.41h-8.74c-.47 0-.93-.18-1-.41l-1.58-4.12c-.12-.21.19-.39.65-.39z"/><path d="m299.57 374.09h8.53a1.31 1.31 0 0 1 1 .39l2.1 4.12c.12.23-.17.41-.65.41h-8.77a1.25 1.25 0 0 1 -1.05-.41l-1.86-4.12c-.06-.21.23-.39.7-.39z"/><path d="m147.37 368.54h8.26c.45 0 .75.16.68.37l-1.42 3.85c-.08.22-.51.39-1 .39h-8.49c-.46 0-.76-.17-.67-.39l1.64-3.85c.12-.21.55-.37 1-.37z"/><path d="m159.47 368.54h8.26c.45 0 .77.16.71.37l-1.14 3.85c-.07.22-.49.39-1 .39h-8.49c-.46 0-.77-.17-.7-.39l1.37-3.85c.12-.21.52-.37.99-.37z"/><path d="m171.55 368.54h8.27c.45 0 .77.16.73.37l-.87 3.85c-.05.22-.46.39-.92.39h-8.49c-.46 0-.78-.17-.72-.39l1.09-3.85c.06-.21.47-.37.91-.37z"/><path d="m183.66 368.54h8.26c.45 0 .79.16.76.37l-.6 3.85c0 .22-.43.39-.89.39h-8.49c-.46 0-.79-.17-.75-.39l.82-3.85c.04-.21.44-.37.89-.37z"/><path d="m195.74 368.54h8.26c.44 0 .79.16.78.37l-.32 3.85c0 .22-.41.39-.87.39h-8.49c-.46 0-.8-.17-.77-.39l.54-3.85c.04-.21.42-.37.87-.37z"/><path d="m207.84 368.54h8.27c.45 0 .81.16.81.37v3.85c0 .22-.38.39-.84.39h-8.49c-.46 0-.82-.17-.8-.39l.27-3.85c-.06-.21.34-.37.78-.37z"/><path d="m219.93 368.54h8.27c.44 0 .82.16.83.37l.22 3.85c0 .22-.34.39-.8.39h-8.45c-.46 0-.84-.17-.84-.39v-3.85c-.04-.21.32-.37.77-.37z"/><path d="m232 368.54h8.27c.44 0 .83.16.86.37l.5 3.85c0 .22-.33.39-.78.39h-8.49c-.46 0-.85-.17-.86-.39l-.28-3.85c.01-.21.36-.37.78-.37z"/><path d="m244.12 368.54h8.26c.45 0 .85.16.89.37l.77 3.85c0 .22-.29.39-.75.39h-8.49c-.46 0-.86-.17-.89-.39l-.55-3.85c-.03-.21.31-.37.76-.37z"/><path d="m256.22 368.54h8.27c.44 0 .85.16.91.37l1 3.85c.06.22-.26.39-.72.39h-8.49c-.46 0-.87-.17-.92-.39l-.82-3.85c-.01-.21.32-.37.77-.37z"/><path d="m268.3 368.54h8.27c.45 0 .87.16.94.37l1.32 3.85c.07.22-.24.39-.7.39h-8.49c-.46 0-.88-.17-.94-.39l-1.1-3.85c-.06-.21.26-.37.7-.37z"/><path d="m280.41 368.54h8.26c.45 0 .88.16 1 .37l1.59 3.85c.09.22-.21.39-.67.39h-8.49c-.46 0-.89-.17-1-.39l-1.37-3.85c-.07-.21.27-.37.68-.37z"/><path d="m292.49 368.54h8.27a1.19 1.19 0 0 1 1 .37l1.87 3.85c.1.22-.19.39-.65.39h-8.49a1.17 1.17 0 0 1 -1-.39l-1.64-3.85c-.1-.21.15-.37.64-.37z"/><path d="m304.59 368.54h17.3a1.33 1.33 0 0 1 1 .37l2.34 3.84c.13.22-.13.39-.59.39h-17.73a1.26 1.26 0 0 1 -1-.39l-1.91-3.84c-.13-.21.15-.37.59-.37z"/></g><path d="m149.16 83.37c-15.3 0-27.7 9.41-27.7 21 0 5.28 2.57 10.09 6.81 13.78l-9.2 15.74 22.31-9.37a35.81 35.81 0 0 0 7.78.85c15.3 0 27.7-9.4 27.7-21s-12.4-21-27.7-21z" fill="#cc7a88"/><path d="m138.49 104.62a4 4 0 1 1 -4-4 4 4 0 0 1 4 4z" fill="#f2f2f2"/><circle cx="147.61" cy="104.62" fill="#f2f2f2" r="4.01"/><circle cx="160.74" cy="104.62" fill="#f2f2f2" r="4.01"/><path d="m186.3 92c15.3 0 27.7 9.4 27.7 21 0 5.27-2.57 10.09-6.81 13.78l9.2 15.73-22.31-9.36a36.44 36.44 0 0 1 -7.78.84c-15.3 0-27.7-9.4-27.7-21s12.4-20.99 27.7-20.99z" fill="#efb378"/><circle cx="172.41" cy="112.93" fill="#f2f2f2" r="4.01"/><circle cx="185.54" cy="112.93" fill="#f2f2f2" r="4.01"/><path d="m202.69 112.93a4 4 0 1 1 -4-4 4 4 0 0 1 4 4z" fill="#f2f2f2"/><rect fill="#fff" height="70.67" rx="4.14" width="54.67" x="43.13" y="167.77"/><path d="m49.44 174.08h21.03v29.02h-21.03z" fill="#efb378"/><path d="m72.92 175.34h20.32" fill="none" stroke="#808080" stroke-miterlimit="10"/><path d="m72.92 181.02h20.32" fill="none" stroke="#808080" stroke-miterlimit="10"/><path d="m72.92 186.7h20.32" fill="none" stroke="#808080" stroke-miterlimit="10"/><path d="m72.92 192.38h20.32" fill="none" stroke="#808080" stroke-miterlimit="10"/><path d="m72.92 198.06h20.32" fill="none" stroke="#808080" stroke-miterlimit="10"/><path d="m72.92 203.74h20.32" fill="none" stroke="#808080" stroke-miterlimit="10"/><path d="m49.44 209.41h43.8" fill="none" stroke="#808080" stroke-miterlimit="10"/><path d="m49.44 215.09h43.8" fill="none" stroke="#808080" stroke-miterlimit="10"/><path d="m49.44 220.77h43.8" fill="none" stroke="#808080" stroke-miterlimit="10"/><path d="m49.44 226.45h43.8" fill="none" stroke="#808080" stroke-miterlimit="10"/><path d="m49.44 232.13h43.8" fill="none" stroke="#808080" stroke-miterlimit="10"/><path d="m312.28 102.84h54.11a0 0 0 0 1 0 0v17.71a13.77 13.77 0 0 1 -13.77 13.77h-26.56a13.77 13.77 0 0 1 -13.77-13.77v-17.71a0 0 0 0 1 -.01 0z" fill="#6d4c33"/><path d="m334.61 119.63-36.55-14.4a2.24 2.24 0 0 1 0-4.16l36.43-14.89a13 13 0 0 1 9.75 0l36.43 14.89a2.24 2.24 0 0 1 0 4.16l-36.55 14.4a13 13 0 0 1 -9.51 0z" fill="#8c6239"/><path d="m339.34 101.45h34.22a8.47 8.47 0 0 1 8.47 8.47v24.41" fill="none" stroke="#e5b26e" stroke-linecap="round" stroke-miterlimit="10" stroke-width="4"/><path d="m382 142.07a4.85 4.85 0 0 1 -4.83-4.84v-4.62a4.84 4.84 0 0 1 4.83-4.83 4.85 4.85 0 0 1 4.84 4.83v4.62a4.86 4.86 0 0 1 -4.84 4.84z" fill="#f2c38b"/><path d="m377.2 137.23h9.67v10.79h-9.67z" fill="#dd9f57"/><path d="m59.24 90.24v9.24" fill="none" stroke="#f2f2f2" stroke-linecap="round" stroke-miterlimit="10" stroke-width="2"/><path d="m59.24 107.19v9.24" fill="none" stroke="#f2f2f2" stroke-linecap="round" stroke-miterlimit="10" stroke-width="2"/><path d="m72.33 103.33h-9.24" fill="none" stroke="#f2f2f2" stroke-linecap="round" stroke-miterlimit="10" stroke-width="2"/><path d="m55.39 103.33h-9.24" fill="none" stroke="#f2f2f2" stroke-linecap="round" stroke-miterlimit="10" stroke-width="2"/><path d="m85.43 271.89v9.24" fill="none" stroke="#f2f2f2" stroke-linecap="round" stroke-miterlimit="10" stroke-width="2"/><path d="m85.43 288.84v9.24" fill="none" stroke="#f2f2f2" stroke-linecap="round" stroke-miterlimit="10" stroke-width="2"/><path d="m98.52 284.99h-9.24" fill="none" stroke="#f2f2f2" stroke-linecap="round" stroke-miterlimit="10" stroke-width="2"/><path d="m81.57 284.99h-9.24" fill="none" stroke="#f2f2f2" stroke-linecap="round" stroke-miterlimit="10" stroke-width="2"/><path d="m428.4 90.24v9.24" fill="none" stroke="#f2f2f2" stroke-linecap="round" stroke-miterlimit="10" stroke-width="2"/><path d="m428.4 107.19v9.24" fill="none" stroke="#f2f2f2" stroke-linecap="round" stroke-miterlimit="10" stroke-width="2"/><path d="m415.3 103.33h9.24" fill="none" stroke="#f2f2f2" stroke-linecap="round" stroke-miterlimit="10" stroke-width="2"/><path d="m432.25 103.33h9.24" fill="none" stroke="#f2f2f2" stroke-linecap="round" stroke-miterlimit="10" stroke-width="2"/><path d="m402.21 271.89v9.24" fill="none" stroke="#f2f2f2" stroke-linecap="round" stroke-miterlimit="10" stroke-width="2"/><path d="m402.21 288.84v9.24" fill="none" stroke="#f2f2f2" stroke-linecap="round" stroke-miterlimit="10" stroke-width="2"/><path d="m389.12 284.99h9.24" fill="none" stroke="#f2f2f2" stroke-linecap="round" stroke-miterlimit="10" stroke-width="2"/><path d="m406.06 284.99h9.24" fill="none" stroke="#f2f2f2" stroke-linecap="round" stroke-miterlimit="10" stroke-width="2"/><path d="m367.9 175a10 10 0 0 0 -10-10h-230.66a10 10 0 0 0 -10 10v133h250.66z" fill="#4d4d4d"/><path d="m117.24 308v11a10 10 0 0 0 10 10h230.66a10 10 0 0 0 10-10v-11z" fill="#ccc"/><rect fill="#50a3d1" height="125" rx="4" width="229.04" x="127.37" y="172.67"/><circle cx="241.78" cy="231.37" fill="#6abfe5" r="22.88" stroke="#ce5760" stroke-miterlimit="10" transform="matrix(.80302555 -.5959446 .5959446 .80302555 -90.26 189.66)"/><path d="m248.68 231.95-12.22-7.05v14.11z" fill="#ce5760"/><path d="m272.67 172.67h79.73a4 4 0 0 1 4 4v117a4 4 0 0 1 -4 4h-79.73a0 0 0 0 1 0 0v-125a0 0 0 0 1 0 0z" fill="#e6e6e6"/><path d="m286.67 185.33h57.67a4.67 4.67 0 0 1 4.66 4.67v9.67a4.67 4.67 0 0 1 -4.67 4.67h-57a4.67 4.67 0 0 1 -4.67-4.67v-10.34a4 4 0 0 1 4.01-4z" fill="#cc7a88"/><path d="m286.67 238.23h58.11a4.22 4.22 0 0 1 4.22 4.22v32.92a4.22 4.22 0 0 1 -4.22 4.22h-57.89a4.22 4.22 0 0 1 -4.22-4.22v-33.14a4 4 0 0 1 4-4z" fill="#efb378"/><path d="m282.67 209.32h66.33" fill="none" stroke="#808080" stroke-miterlimit="10"/><path d="m282.67 215.98h66.33" fill="none" stroke="#808080" stroke-miterlimit="10"/><path d="m282.67 222.64h66.33" fill="none" stroke="#808080" stroke-miterlimit="10"/><path d="m282.67 229.29h66.33" fill="none" stroke="#808080" stroke-miterlimit="10"/><path d="m138.33 288.67h54.88v3.33h-54.88z" fill="none"/><path d="m218.9 329h45.77v19h-45.77z" fill="#999"/><rect fill="#ccc" height="7" rx="3.49" width="81.77" x="200.9" y="348"/><path d="m131.37 171.67h221a4 4 0 0 1 4 4v4.09a0 0 0 0 1 0 0h-229a0 0 0 0 1 0 0v-4.09a4 4 0 0 1 4-4z" fill="#fff"/><path d="m330.31 175.71a2.65 2.65 0 1 1 -2.64-2.64 2.65 2.65 0 0 1 2.64 2.64z" fill="#f9c73d"/><path d="m339.64 175.71a2.64 2.64 0 1 1 -2.64-2.64 2.65 2.65 0 0 1 2.64 2.64z" fill="#39b54a"/><path d="m349 175.71a2.65 2.65 0 1 1 -2.64-2.64 2.65 2.65 0 0 1 2.64 2.64z" fill="#ce5760"/><path d="m239.65 157.17h5.83v6.5h-5.83z" fill="#6f7484"/><circle cx="242.57" cy="147.88" fill="#8e93a8" r="11.67" transform="matrix(.2286907 -.97349913 .97349913 .2286907 43.15 350.22)"/><path d="m248.33 147.88a5.76 5.76 0 1 1 -5.76-5.76 5.77 5.77 0 0 1 5.76 5.76z" fill="#e6e6e6"/><path d="m234.32 163.67h16.5a3.42 3.42 0 0 1 3.42 3.42v3.25a0 0 0 0 1 0 0h-23.34a0 0 0 0 1 0 0v-3.25a3.42 3.42 0 0 1 3.42-3.42z" fill="#8e93a8"/><path d="m246.5 147.88a3.93 3.93 0 1 1 -3.93-3.93 3.93 3.93 0 0 1 3.93 3.93z" fill="#a5acd3"/><path d="m244.6 147.88a2 2 0 1 1 -2-2 2 2 0 0 1 2 2z" fill="#48485b"/><path d="m230.9 168.25h23.34" fill="none" stroke="#6f7484" stroke-miterlimit="10"/><circle cx="316.22" cy="258.98" fill="#ffc999" r="10.45" stroke="#ce5760" stroke-miterlimit="10" transform="matrix(.8171449 -.57643232 .57643232 .8171449 -91.46 229.65)"/><path d="m319.37 259.25-5.58-3.22v6.44z" fill="#ce5760"/><path d="m169.35 266.61a5.43 5.43 0 0 0 -2-7.95 6.83 6.83 0 0 0 -8.84 1.78 74 74 0 0 0 -13.51 37.23h12.86a63.33 63.33 0 0 1 11.49-31.06z" fill="#315660"/><path d="m194.85 266.61a5.73 5.73 0 0 1 1.8-7.95 5.84 5.84 0 0 1 8 1.78 78.93 78.93 0 0 1 12.25 37.23h-11.64a67.51 67.51 0 0 0 -10.41-31.06z" fill="#315660"/><path d="m193.34 186.07a25.62 25.62 0 0 0 -7.47-2.46c-7.7-1.13-15.54 2.57-21 8.17s-8.69 12.91-11.16 20.29c-1.76 5.23-3.17 10.69-2.94 16.2a32.85 32.85 0 0 0 1.73 9.52 19.21 19.21 0 0 0 2.47 4.94c5.93 8.19 16.58 14.66 26.62 15.89 5.5.68 10.05-1.68 14.55-4.61a64.6 64.6 0 0 0 13.11-10.8 35.88 35.88 0 0 0 6.91-11.1c1.46-3.86 1.52-8.45 1.36-12.56a44.07 44.07 0 0 0 -4.22-16.64 19.25 19.25 0 0 0 -5.11-7.25 6.31 6.31 0 0 0 -3.19-1.46c-.43 0-3.47-.06-3.39.8-.48-4.42-4.52-7.07-8.27-8.93z" fill="#9b795d"/><path d="m203.64 297.67h-42.49c1.4 0 2.83-4.6 3.07-5.6a14.62 14.62 0 0 0 -.06-7c-.33-1.3-.85-2.55-1.26-3.83-1.79-5.65-1.38-11.73 0-17.42 1.1-4.6 5.27-7.34 10-7.34h19c2.69 0 6 1 7.86 3.1a9.6 9.6 0 0 1 1.63 3 28.79 28.79 0 0 1 1.17 16c-.52 2.34-1.37 4.61-1.85 7-.92 4.48.75 8.2 2.93 12.09z" fill="#436d7c"/><path d="m179 254.68c-6.46 1.39-13 4.9-16.27 9.64a.4.4 0 0 0 .28.61l4.56 1a.15.15 0 0 1 0 .3q-2.47.75-4.88 1.65a.44.44 0 0 0 -.27.64 13.11 13.11 0 0 0 2.8 3.07 32.78 32.78 0 0 0 15.06 7.1.9.9 0 0 1 .51.21.77.77 0 0 1 .14.45 2.15 2.15 0 0 0 .33 1.11 1.49 1.49 0 0 0 2.25 0 2.18 2.18 0 0 0 .33-1.11.77.77 0 0 1 .14-.45.81.81 0 0 1 .51-.21 32.78 32.78 0 0 0 15.06-7.1 13.33 13.33 0 0 0 2.8-3.07.45.45 0 0 0 -.27-.64c-1.6-.6-3.23-1.16-4.88-1.66a.15.15 0 0 1 0-.3l4.56-1a.41.41 0 0 0 .28-.62 24.52 24.52 0 0 0 -14.22-9.57 19.78 19.78 0 0 0 -8.82-.05z" fill="#e6e6e6"/><path d="m185.74 269.44c-.79 1.71-2.1 5.56-4.29 4.22a3.68 3.68 0 0 1 -1.07-1.26 49.84 49.84 0 0 1 -2.22-4.79 22.86 22.86 0 0 1 -2-5.48 31.1 31.1 0 0 1 -.17-5.63v-7.62h12.34v10.23a22.08 22.08 0 0 1 -2.21 9.53c-.12.2-.23.47-.38.8z" fill="#f2c4a5"/><ellipse cx="183.42" cy="223.63" fill="#f7d7c1" rx="21.14" ry="30.21"/><path d="m194.2 218.88a3.8 3.8 0 0 0 -1.34-.1 3.41 3.41 0 0 1 .64.1 4.4 4.4 0 0 1 2.72 5.56 4.59 4.59 0 0 1 -3.88 3.43 4.48 4.48 0 0 0 4.58-3.43 4.4 4.4 0 0 0 -2.72-5.56z" fill="#333"/><path d="m193.5 218.88a3.41 3.41 0 0 0 -.64-.1 4.46 4.46 0 0 0 -4.57 3.43 4.37 4.37 0 0 0 2.72 5.55 3.54 3.54 0 0 0 1.33.11 4.59 4.59 0 0 0 3.88-3.43 4.4 4.4 0 0 0 -2.72-5.56z" fill="#f2f2f2"/><path d="m181.24 230.31-.08.08a9.53 9.53 0 0 0 -1.15 1.23 2.69 2.69 0 0 0 .14 3.33 3.55 3.55 0 0 0 2.86.76 2.15 2.15 0 0 0 1.14-.84c1.32-1.84 1.17-4.75 1-6.85a8.1 8.1 0 0 0 -.31-1.77c-.07-.21-.39-1.35-.84-1a.52.52 0 0 0 -.14.36 6 6 0 0 1 -.71 2.05 10.94 10.94 0 0 1 -1.91 2.65z" fill="#f7a594"/><path d="m163.36 227.28c-.58-1.23-1.39-2.56-2.73-2.84a2.87 2.87 0 0 0 -2.28.61 4.93 4.93 0 0 0 -1.41 2 5.63 5.63 0 0 0 -.49 2.39 6.71 6.71 0 0 0 .48 2.07 8.92 8.92 0 0 0 1.9 3.1 5.28 5.28 0 0 0 3.21 1.6 2.6 2.6 0 0 0 2.44-1" fill="#f7d7c1"/><path d="m188.76 206.22c-3.75 2.1-7.94 3.29-11.92 4.91s-7.93 3.81-10.4 7.33c-1.87 2.65-2.75 5.84-3.61 9-1.7-2.23-3.43-4.52-4.2-7.21a16.25 16.25 0 0 1 -.48-5.06 27.49 27.49 0 0 1 9.71-19.85 26 26 0 0 1 21.33-5.48 12.12 12.12 0 0 1 5.31 2.23c5.97 4.8-1.21 11.59-5.74 14.13z" fill="#9b795d"/><path d="m197.66 209c1.28 3.05 2.82 6 3.62 9.22a33.15 33.15 0 0 1 .71 9.06c-.06 1.89-.19 3.79-.4 5.67a7.77 7.77 0 0 0 1.48-2.8c1.63-4.4 3.27-8.86 3.88-13.51s.13-9.61-2.27-13.65a19.91 19.91 0 0 0 -2.76-3.57 6.23 6.23 0 0 0 -3.41-2.14c-5.72-.81-1.8 9.47-.85 11.72z" fill="#9b795d"/><path d="m182.63 240.34a1 1 0 0 1 1.38.25c.4-.77.9-1.23 1.78-1a1.6 1.6 0 0 1 1.26 1.78 3.28 3.28 0 0 1 -3.51 2.53 2.71 2.71 0 0 1 -2.11-1.44c-.26-.69.57-1.76 1.2-2.12z" fill="#d4145a"/><path d="m193 224.4a1.84 1.84 0 1 1 -1.83-1.84 1.83 1.83 0 0 1 1.83 1.84z" fill="#333"/><path d="m174.09 218.88a3.75 3.75 0 0 1 1.33-.1 3.55 3.55 0 0 0 -.64.1 4.4 4.4 0 0 0 -2.72 5.56 4.59 4.59 0 0 0 3.89 3.43 4.48 4.48 0 0 1 -4.58-3.43 4.4 4.4 0 0 1 2.72-5.56z" fill="#333"/><path d="m174.78 218.88a3.55 3.55 0 0 1 .64-.1 4.47 4.47 0 0 1 4.58 3.43 4.38 4.38 0 0 1 -2.72 5.55 3.55 3.55 0 0 1 -1.33.11 4.59 4.59 0 0 1 -3.89-3.43 4.4 4.4 0 0 1 2.72-5.56z" fill="#f2f2f2"/><path d="m175.34 224.4a1.83 1.83 0 1 0 1.83-1.84 1.83 1.83 0 0 0 -1.83 1.84z" fill="#333"/><path d="m192.21 214.07a8.45 8.45 0 0 1 3.19 1.7 11.1 11.1 0 0 1 2.22 2.59.28.28 0 0 1 -.09.4.29.29 0 0 1 -.36 0 8.26 8.26 0 0 0 -5.29-2.71 1 1 0 0 1 .08-2h.21z" fill="#9b795d"/><path d="m169.51 218.46a8.81 8.81 0 0 1 6.31-4.53 1 1 0 0 1 1.13.8 1 1 0 0 1 -.81 1.13h-.14a7.44 7.44 0 0 0 -5.8 3 .4.4 0 0 1 -.57.09.41.41 0 0 1 -.12-.49z" fill="#9b795d"/><path d="m161.42 233.22a2.35 2.35 0 0 1 -2-.75 3.05 3.05 0 0 1 -.81-2.06 3.31 3.31 0 0 1 .65-2.09 1.77 1.77 0 0 1 2.05-.66l-.1.31a1.44 1.44 0 0 0 -1.34.77 3.28 3.28 0 0 0 -.35 1.64 2.79 2.79 0 0 0 .53 1.56 2.87 2.87 0 0 0 1.39 1z" fill="#c47a70"/><path d="m159.52 229.65a1.57 1.57 0 0 0 1.57.73.2.2 0 0 1 .23.17.21.21 0 0 1 -.12.22 2.24 2.24 0 0 1 -2.41-.55.47.47 0 0 1 0-.66.48.48 0 0 1 .66 0 .61.61 0 0 1 .07.09z" fill="#c47a70"/><circle cx="162.37" cy="236.18" fill="#fff" r="1.27"/><path d="m203.54 227.28c.58-1.23 1.39-2.56 2.73-2.84a2.87 2.87 0 0 1 2.28.61 4.93 4.93 0 0 1 1.41 2 5.63 5.63 0 0 1 .49 2.39 6.71 6.71 0 0 1 -.48 2.07 8.92 8.92 0 0 1 -1.9 3.1 5.28 5.28 0 0 1 -3.21 1.6 2.6 2.6 0 0 1 -2.44-1" fill="#f7d7c1"/><path d="m205.46 233a2.87 2.87 0 0 0 1.39-1 3 3 0 0 0 .53-1.56 3.28 3.28 0 0 0 -.35-1.64 1.45 1.45 0 0 0 -1.35-.77l-.09-.31a1.77 1.77 0 0 1 2 .66 3.31 3.31 0 0 1 .65 2.09 3.05 3.05 0 0 1 -.81 2.06 2.35 2.35 0 0 1 -2 .75z" fill="#c47a70"/><path d="m208.1 230.22a2.24 2.24 0 0 1 -2.41.55.21.21 0 0 1 -.11-.27.2.2 0 0 1 .22-.12 1.59 1.59 0 0 0 1.57-.73.47.47 0 0 1 .63-.18.46.46 0 0 1 .18.63.36.36 0 0 1 -.07.1z" fill="#c47a70"/><circle cx="204.53" cy="236.18" fill="#fff" r="1.27"/><path d="m179.3 241.33a2.43 2.43 0 0 0 1.23.37 10.29 10.29 0 0 0 8.58-3.22l.21.14a7.74 7.74 0 0 1 -4.52 3.57 7.87 7.87 0 0 1 -2.93.35 7.21 7.21 0 0 1 -1.46-.26 2.35 2.35 0 0 1 -1.3-.78z" fill="#c47a70"/><path d="m207.05 219.28a33.56 33.56 0 0 0 -.79-9.84 20.88 20.88 0 0 0 -4.07-8.71 17.29 17.29 0 0 0 -3.53-3.19 19.29 19.29 0 0 0 -4.35-2.06 29.72 29.72 0 0 0 -9.89-1.16 35.44 35.44 0 0 0 -9.95 1.49 18.61 18.61 0 0 0 -8.22 5 19.66 19.66 0 0 0 -4.47 8.58 52.27 52.27 0 0 0 -1.4 10 .59.59 0 0 1 -1.18 0 47.94 47.94 0 0 1 .63-10.39 21.74 21.74 0 0 1 4.52-9.75 20.5 20.5 0 0 1 9.2-6.06 37.41 37.41 0 0 1 10.79-1.8 32 32 0 0 1 10.93 1.31 21.48 21.48 0 0 1 5.07 2.48 17.83 17.83 0 0 1 4.08 3.86 22.87 22.87 0 0 1 4.29 9.91 32.66 32.66 0 0 1 .18 10.58.92.92 0 0 1 -1.06.75.91.91 0 0 1 -.79-.94z" fill="#666"/><rect fill="#999" height="13.23" rx="1.18" width="2.44" x="210.58" y="223.32"/><path d="m207.08 219.06h1.82a1.24 1.24 0 0 1 1.24 1.24v1.47a0 0 0 0 1 0 0h-4.3a0 0 0 0 1 0 0v-1.47a1.24 1.24 0 0 1 1.24-1.24z" fill="#999"/><rect fill="#666" height="19.28" rx="3.37" width="6.95" x="204.53" y="220.3"/><path d="m208 239.58s-3.93 10.41-18.72 8.84" fill="none" stroke="#666" stroke-miterlimit="10"/><rect fill="#4d4d4d" height="7.91" rx="2.63" transform="matrix(0 1 -1 0 436.75 60.09)" width="5.42" x="185.63" y="244.46"/><path d="m199.66 278.93c0 1.27-1.88 2.3-4.19 2.3s-4.2-1-4.2-2.3 1.88-2.29 4.2-2.29 4.19 1.03 4.19 2.29z" fill="#dd9f57"/><path d="m136.3 290.33-6-3.46v6.93z" fill="#ce5760"/><path d="m138.33 288.67h215.33v3.33h-215.33z" fill="#f2f2f2"/><path d="m138.33 288.67h54.88v3.33h-54.88z" fill="#39b54a"/><path d="m196.63 290.33a3.42 3.42 0 1 1 -3.42-3.42 3.43 3.43 0 0 1 3.42 3.42z" fill="#ce5760"/><path d="m402.62 196.08 28.17-18.18a5 5 0 0 1 5.4 0l28.17 18.18-31.19 26.44z" fill="#d1924e"/><rect fill="#fff" height="70.67" rx="4.14" transform="matrix(-1 0 0 -1 866.98 404.21)" width="54.67" x="406.16" y="166.77"/><path d="m433.49 173.08h21.03v29.02h-21.03z" fill="#cc7a88" transform="matrix(-1 0 0 -1 888.01 375.19)"/><path d="m431.04 174.34h-20.33" fill="none" stroke="#808080" stroke-miterlimit="10"/><path d="m431.04 180.02h-20.33" fill="none" stroke="#808080" stroke-miterlimit="10"/><path d="m431.04 185.7h-20.33" fill="none" stroke="#808080" stroke-miterlimit="10"/><path d="m431.04 191.38h-20.33" fill="none" stroke="#808080" stroke-miterlimit="10"/><path d="m431.04 197.06h-20.33" fill="none" stroke="#808080" stroke-miterlimit="10"/><path d="m431.04 202.74h-20.33" fill="none" stroke="#808080" stroke-miterlimit="10"/><path d="m454.52 208.41h-43.81" fill="none" stroke="#808080" stroke-miterlimit="10"/><path d="m454.52 214.09h-43.81" fill="none" stroke="#808080" stroke-miterlimit="10"/><path d="m454.52 219.77h-43.81" fill="none" stroke="#808080" stroke-miterlimit="10"/><path d="m454.52 225.45h-43.81" fill="none" stroke="#808080" stroke-miterlimit="10"/><path d="m454.52 231.13h-43.81" fill="none" stroke="#808080" stroke-miterlimit="10"/><path d="m466.08 200.06a5.46 5.46 0 0 0 -1.74-4l-18.83 16 20.57 18.83z" fill="#f4bf87"/><path d="m442.43 215.41a2.17 2.17 0 0 1 -.36-.44l-6.15 5.22a4.21 4.21 0 0 1 -5.47 0l-5.73-5a1.63 1.63 0 0 1 -.17.2l-22.12 20.24a2.29 2.29 0 0 1 -1.06.54 5.48 5.48 0 0 0 5 3.25h54.24a5.48 5.48 0 0 0 5-3.25 2.29 2.29 0 0 1 -1.06-.54z" fill="#f4bf87"/><path d="m402.62 196.08a5.44 5.44 0 0 0 -1.73 4v30.82l20.38-18.66z" fill="#f4bf87"/><path d="m421.47 212.04-.2.18 3.45 2.99" fill="#d1924e"/><path d="m424.55 215.41a1.63 1.63 0 0 0 .17-.2l-3.45-3-20.38 18.66v3.13a5.49 5.49 0 0 0 .48 2.22 2.29 2.29 0 0 0 1.06-.54z" fill="#e0a263"/><path d="m442.07 214.97 3.44-2.92v-.01" fill="#d1924e"/><path d="m466.08 230.88-20.57-18.83-3.44 2.95a2.17 2.17 0 0 0 .36.44l22.12 20.24a2.29 2.29 0 0 0 1.06.54 5.49 5.49 0 0 0 .47-2.22z" fill="#e0a263"/><path d="m413.93 377.16c6.63-5.45 15.63-7.63 26.75-6.48a32.77 32.77 0 0 0 -3.35-2c-15.88-8.06-35-.68-40 9.23-3.12 6.13-.47 13.29 5.49 20.24.55-3.8 2.74-14.1 11.11-20.99z" fill="#ccc"/><path d="m442 371.64c-11.57-1.47-20.85.58-27.6 6.13-8.72 7.23-10.54 18.23-10.88 21.23a75.84 75.84 0 0 0 13.48 11.46c11.73 8 32.83 6.55 37.86-3.36 4.49-8.86-.38-26.1-12.86-35.46z" fill="#ccc"/><path d="m414.43 377.77c6.75-5.55 16-7.6 27.6-6.13q-.66-.5-1.35-1c-11.12-1.15-20.12 1-26.75 6.48-8.37 6.89-10.56 17.19-11.1 21l.69.79c.34-2.91 2.16-13.91 10.91-21.14z" fill="#999"/><path d="m427.63 371.44c-1.72-1.93-6.13-2.79-6.17-2.8l.14-.77c.19 0 4.72.91 6.62 3.05z" fill="#999"/><path d="m422.83 366.31a5 5 0 0 0 -.6-.92 6.38 6.38 0 0 0 -3.47-2c-2.35-.55-5.53-.5-7.25 1.4a1.86 1.86 0 0 0 -.55 1.88 1.53 1.53 0 0 0 1 .77 5.67 5.67 0 0 0 1.3.11 18 18 0 0 1 3.67.42c1.08.24 2.05.79 3.15.94 1.42.2 3.48-.78 2.78-2.52a.36.36 0 0 0 -.03-.08z" fill="#827d78"/><path d="m97.36 398.61a13.42 13.42 0 0 1 -8.46-3 3 3 0 0 1 -.37-4.37 3.31 3.31 0 0 1 4.54-.35 6.84 6.84 0 0 0 4.29 1.51 6.39 6.39 0 1 0 0-12.77 6.71 6.71 0 0 0 -5.14 2.37 3.33 3.33 0 0 1 -4.54.44 3 3 0 0 1 -.45-4.36 13.22 13.22 0 0 1 10.13-4.62 12.59 12.59 0 1 1 0 25.15z" fill="#cc465c"/><path d="m91 413c0 7.68-46.91 7.68-46.91 0l-4.4-52.09h55.66z" fill="#dd5263"/><ellipse cx="67.49" cy="360.87" fill="#e5677d" rx="27.85" ry="8.46"/><path d="m90.74 363.28c1.44-.87 2.24-1.84 2.24-2.87 0-3.86-11.41-7-25.49-7s-25.49 3.14-25.49 7c0 1 .81 2 2.25 2.87 4-2.43 12.89-4.12 23.24-4.12s19.25 1.69 23.25 4.12z" fill="#bc4a53"/><ellipse cx="67.49" cy="363.28" fill="#603a26" rx="23.24" ry="4.13"/><path d="m54.45 354c-2.52-2.09-3.1-5.26-1.43-7.74.83-1.24 2.18-2.33 2.55-3.68.56-2.06-1.29-4-2.42-6s-1.15-4.73 1.57-5.58" fill="none" stroke="#f2f2f2" stroke-linecap="round" stroke-miterlimit="10" stroke-width="3"/><path d="m67.27 354a8.79 8.79 0 0 1 -1.43-10c.83-1.6 2.18-3 2.55-4.75.56-2.66-1.29-5.17-2.42-7.67s-1.14-6.11 1.57-7.16" fill="none" stroke="#f2f2f2" stroke-linecap="round" stroke-miterlimit="10" stroke-width="3"/><path d="m80.09 354c-2.52-2.09-3.1-5.26-1.43-7.74.83-1.24 2.18-2.33 2.55-3.68.56-2.06-1.28-4-2.42-6s-1.14-4.74 1.57-5.55" fill="none" stroke="#f2f2f2" stroke-linecap="round" stroke-miterlimit="10" stroke-width="3"/></svg>